<svg width="118" height="150" viewBox="0 0 118 150" fill="none" xmlns="http://www.w3.org/2000/svg">
<path d="M61.6793 17.2426C61.5539 17.7193 61.1148 20.1783 60.914 21.5458C60.3118 25.7989 60.2115 26.652 59.9104 30.0771C59.3709 36.2497 59.1074 40.7035 58.7812 49.5233C58.593 54.755 58.3045 66.1593 58.3421 67.2759C58.3672 67.9283 58.1916 79.5207 57.9657 92.8696C57.8152 101.689 57.5015 115.603 57.4012 117.899C56.9119 128.964 56.6233 133.895 56.1466 139.415C55.8078 143.367 55.4691 146.654 55.1304 149.289C55.0551 149.828 55.0676 149.879 55.3436 149.954C56.1968 150.167 63.9753 149.59 64.2513 149.289C64.3015 149.239 64.4018 148.235 64.4771 147.068C64.5524 145.889 64.728 143.154 64.866 140.983C65.1169 137.22 65.4431 132.841 65.9952 126.305C66.6099 119.003 66.7605 117.209 66.9361 115.327C67.0365 114.223 67.1996 112.278 67.3125 110.999C67.4254 109.719 67.6261 107.461 67.7641 105.98C67.9021 104.5 68.0903 102.267 68.1907 101.025C68.3664 98.9042 68.68 95.1781 68.818 93.7478C68.8556 93.4091 68.9686 91.9663 69.0689 90.5486C69.1818 89.1309 69.3449 86.9605 69.4453 85.7184C69.7088 82.4565 69.8719 80.1104 70.0099 77.689C70.0726 76.5097 70.1604 75.2425 70.1981 74.8662C70.2357 74.4898 70.3486 72.6832 70.449 70.8515C71.1892 57.6531 71.2143 43.7271 70.5117 36.3501C70.0726 31.8461 69.232 27.2793 68.3162 24.4941C67.3627 21.5835 65.8948 19.1495 64.4771 18.0957C63.2727 17.2049 61.8174 16.7658 61.6793 17.2426Z" fill="#332B2B"/>
<path d="M58.3046 17.7821C57.7024 18.0706 56.8493 18.5223 56.4227 18.8234C55.5069 19.4381 53.4494 21.3828 53.4494 21.6211C53.4494 21.7215 53.3992 21.7968 53.3364 21.7968C53.2361 21.7968 52.6715 22.6123 51.5047 24.4314C50.9903 25.2344 49.7859 27.8565 49.1963 29.4624C48.3306 31.8461 47.352 35.4844 46.8502 38.2947C46.386 40.8541 46.2731 41.4939 46.1601 42.3722C46.0974 42.8865 45.9594 43.9278 45.859 44.6932C45.3447 48.5699 44.8805 54.8303 44.6546 61.0029C44.4915 65.4944 44.5668 83.3347 44.7801 89.1686C44.8554 91.063 44.9934 95.0401 45.1063 98.0135C45.2067 100.974 45.3823 105.667 45.4827 108.427C46.0472 123.532 46.0974 125.564 46.0849 134.961C46.0849 140.243 46.0347 145.487 45.9594 146.629C45.8716 148.135 45.8716 148.737 45.972 148.85C46.2605 149.151 50.1999 149.778 52.0317 149.803L53.1357 149.828L53.2863 148.636C53.4243 147.52 53.5372 146.479 54.0014 141.862C54.1017 140.858 54.2774 138.826 54.3903 137.345C54.9549 129.516 55.0678 127.384 55.394 118.94C55.4943 116.268 55.6073 113.307 55.6449 112.379C55.7704 109.343 55.9585 99.0297 56.1467 85.2166C56.2471 77.7643 56.36 70.45 56.3977 68.9696C56.4227 67.4892 56.4855 64.5158 56.5231 62.383C56.636 56.4613 56.9497 45.9728 57.0877 43.3758C57.163 42.0961 57.2633 40.1766 57.3386 39.1102C57.4013 38.0438 57.4892 36.5383 57.5268 35.7855C57.6146 34.1545 57.9157 30.5037 58.0914 28.8225C58.4552 25.3849 58.6308 23.9547 58.8567 22.3864C59.1452 20.3916 59.5718 17.8197 59.6722 17.4935C59.7725 17.1799 59.5467 17.23 58.3046 17.7821Z" fill="#332B2B"/>
<path d="M53.1231 18.1459C49.1962 19.5134 45.9343 22.0351 43.6383 25.4978C42.7978 26.765 41.1542 30.0395 40.4642 31.821C37.8797 38.5205 36.1359 47.4909 35.4458 57.7159C35.082 63.1608 34.9565 69.2331 35.1196 74.2013C35.3078 80.2986 35.5964 87.6882 35.7595 90.4859C36.0355 95.3036 36.324 99.7323 36.5875 103.157C36.7632 105.566 36.9764 108.489 37.265 112.379C37.3277 113.382 37.4532 114.7 37.5159 115.327C37.5786 115.942 37.7292 117.447 37.8296 118.652C38.5447 126.493 39.6738 135.049 40.9159 141.799C41.5933 145.525 41.8192 146.541 42.0826 146.93C42.2834 147.256 43.5254 148.135 43.7638 148.135C43.9771 148.135 44.0273 147.219 44.1778 141.611C44.3284 136.103 44.2155 126.543 43.9144 118.652C43.8391 116.895 43.7387 113.621 43.6634 111.375C43.5882 109.129 43.4502 105.202 43.3498 102.656C42.8856 91.5147 42.7601 85.9694 42.6974 74.8035C42.6221 60.3129 42.7476 56.662 43.6634 46.826C44.0022 43.2378 44.918 37.7176 45.7461 34.3427C46.2103 32.4734 47.3394 28.6845 47.5527 28.2956C47.628 28.1701 47.6781 27.9568 47.6781 27.8314C47.6781 27.6934 47.7283 27.5554 47.7911 27.5177C47.8412 27.4801 48.0796 27.0159 48.318 26.4764C48.9076 25.1215 50.1121 22.9008 50.7895 21.9222C51.7179 20.5673 52.1821 20.0278 53.3489 18.8736C53.9637 18.2713 54.3902 17.7821 54.3024 17.7946C54.2146 17.7946 53.6877 17.9577 53.1231 18.1459Z" fill="#332B2B"/>
<path d="M67.2498 18.0581C67.2498 18.1334 67.4129 18.3968 67.6011 18.6478C69.3073 20.8308 70.863 25.3222 71.6911 30.5162C72.2055 33.6778 72.4815 36.4003 72.7951 41.4312C72.9959 44.505 72.9959 57.6406 72.7951 62.0693C72.4689 69.2331 72.1302 75.4935 71.8918 78.5046C71.8291 79.3702 71.6785 81.365 71.5782 82.9584C71.4652 84.5392 71.2645 87.1989 71.1265 88.855C70.9885 90.511 70.7752 93.2712 70.6372 95.0025C70.4992 96.7213 70.3361 98.7036 70.2608 99.3936C70.1981 100.084 70.1103 101.15 70.0726 101.777C70.035 102.392 69.9848 103.107 69.9597 103.346C69.9095 103.797 69.7088 105.88 69.5081 108.05C69.3826 109.38 69.0941 112.705 68.8808 115.202C68.818 116.03 68.6424 117.924 68.5169 119.404C68.3789 120.885 68.2033 122.829 68.128 123.733C68.0527 124.624 67.9398 125.978 67.8771 126.744C67.8018 127.497 67.5885 130.357 67.3753 133.08C67.1745 135.802 66.9738 138.349 66.9362 138.725C66.8232 139.879 66.3716 147.445 66.3716 148.197C66.3716 148.825 66.3967 148.887 66.635 148.887C67.0742 148.887 69.3826 148.135 70.1981 147.733C71.5907 147.031 71.7789 146.704 72.1929 144.245C72.6947 141.172 72.9582 139.214 73.2091 136.843C73.3095 135.84 73.4851 134.234 73.5855 133.268C73.6859 132.302 73.8615 130.382 73.9619 129.002C74.0748 127.622 74.2128 125.815 74.2755 124.987C74.4261 123.206 74.7146 119.028 74.9028 116.205C74.9656 115.101 75.0785 113.683 75.1538 113.069C75.2165 112.441 75.4172 110.183 75.5929 108.05C75.7685 105.905 75.9692 103.534 76.032 102.781C76.1073 102.016 76.2453 100.297 76.3456 98.9545C76.446 97.6121 76.6091 95.6047 76.722 94.5007C76.8224 93.3966 76.998 91.4771 77.0984 90.235C77.3242 87.5126 77.3117 87.5502 77.7884 83.4602C78.1397 80.4241 78.3781 78.5924 78.6666 76.4345C79.0556 73.7245 79.6954 68.4803 80.0969 64.9549C80.8998 57.7912 81.2135 49.2976 80.8622 44.1286C80.8496 43.8902 80.7994 43.0371 80.7493 42.2467C80.5736 39.2106 80.2851 36.7139 79.6076 32.2852C78.6917 26.3259 76.0947 22.3237 71.4276 19.6765C69.9221 18.8234 67.2498 17.7821 67.2498 18.0581Z" fill="#332B2B"/>
<path d="M18.5713 33.6778C18.5713 33.7405 18.8097 33.9412 19.0857 34.1545C19.6377 34.5685 20.4406 35.4593 21.0428 36.35C22.5233 38.533 23.3011 41.5566 23.5897 46.1861C23.7402 48.5071 23.7026 50.2008 23.4015 56.6118C22.9624 65.6951 23.2509 70.3496 24.493 74.2389C25.1579 76.3215 25.8981 77.689 26.9771 78.768C28.1815 79.9849 28.8339 80.2609 30.5276 80.2609C31.6065 80.2609 33.0493 80.01 33.2877 79.7716C33.3881 79.6713 33.2124 74.7909 33.0995 74.6654C33.0493 74.6278 32.8988 74.6654 32.7357 74.7407C32.3342 74.9665 31.0169 74.9289 30.4523 74.6905C27.6797 73.4986 26.4752 68.6685 26.9269 60.6139C27.2907 54.0524 27.3409 52.7727 27.2782 50.4643C27.1778 46.2237 26.538 41.3308 25.7852 39.198C24.9195 36.7013 22.4731 34.5309 19.7255 33.8283C18.6717 33.5648 18.5713 33.5523 18.5713 33.6778Z" fill="#332B2B"/>
<path d="M15.4227 34.2926C15.4101 34.3553 15.4227 34.4557 15.4352 34.5309C15.7991 36.1243 16.0249 40.0386 16.1253 46.6378C16.2256 53.1241 16.4138 58.7321 16.6271 62.0066C17.3297 72.4448 19.4248 79.9348 22.6366 83.4853C23.8912 84.8654 25.9362 86.0949 27.7554 86.5591C28.621 86.7723 29.035 86.81 30.3022 86.7473C31.7199 86.6845 33.0999 86.4085 33.4763 86.12C33.6143 86.007 33.6269 85.5679 33.5516 83.9746C33.514 82.858 33.4512 81.9421 33.4387 81.9171C33.4261 81.892 32.7612 81.9798 31.9583 82.0927C30.7288 82.2683 30.3524 82.2809 29.424 82.1429C25.9738 81.6536 23.5148 78.6049 22.1975 73.1725C21.5702 70.563 21.4322 69.2582 21.3695 64.704C21.3193 61.7055 21.3695 59.1587 21.52 55.8214C21.7709 50.3639 21.7333 45.195 21.4071 43.1877C20.8676 39.8002 19.8138 37.4291 18.1828 35.9235C17.2795 35.083 15.4603 34.0166 15.4227 34.2926Z" fill="#332B2B"/>
<path d="M12.2735 35.1833C10.8307 36.7014 9.86468 38.2445 8.99901 40.4275C8.03297 42.874 7.41822 45.4961 7.0042 48.9588C6.79092 50.7403 6.79092 57.352 7.0042 59.3092C7.43076 63.1984 8.15843 67.163 8.98646 70.036C9.16211 70.6507 9.37539 71.4411 9.47575 71.7924C9.57612 72.1312 9.87723 73.0972 10.1658 73.9252C12.3237 80.1857 15.9495 86.5339 18.7096 88.9177C20.3406 90.3228 22.5487 91.339 24.97 91.8158C26.0364 92.0291 29.5493 92.0291 30.7412 91.8283C31.9456 91.6151 33.5138 91.1759 33.7146 91.0003C33.9655 90.7745 33.7647 88.2151 33.5013 88.2527C33.4009 88.2653 32.8614 88.3657 32.3094 88.4911C31.105 88.742 28.8467 88.7797 27.7929 88.5538C25.8733 88.1524 23.7531 87.0609 22.0468 85.6181C19.8136 83.6986 17.6683 79.4204 16.4388 74.4271C15.0211 68.6183 14.3938 61.2413 14.2432 48.6451C14.1679 41.9581 14.0048 38.1692 13.7288 36.2246C13.4905 34.5435 13.4403 34.3427 13.2521 34.3427C13.1643 34.3427 12.7252 34.7191 12.2735 35.1833Z" fill="#332B2B"/>
<path d="M8.67272 35.6851C5.38568 37.6298 2.93921 40.7663 1.83517 44.4046C1.29569 46.1736 1.13259 47.1898 0.944405 50.1255C0.706032 53.7137 0.706032 56.2354 0.944405 59.9365C1.20787 64.0892 1.69716 67.6523 2.46247 71.1024C2.95176 73.3356 3.19013 74.2013 4.06835 76.8735C6.77828 85.2041 11.6336 91.6276 17.3796 94.463C18.2202 94.8895 20.1523 95.5043 21.4571 95.7678C22.3353 95.956 23.1884 95.9936 26.4127 95.9936C28.5581 95.9936 31.1676 95.981 32.234 95.9685L34.1661 95.9434L34.0783 94.5884C34.0281 93.8482 33.9528 93.2084 33.9027 93.1582C33.8525 93.1206 33.3883 93.1958 32.8739 93.3338C32.3595 93.4593 31.7949 93.5973 31.6193 93.6224C27.9308 94.1744 24.5434 93.9361 21.8585 92.9449C19.1737 91.9663 17.0534 90.3855 15.3472 88.1022C12.5118 84.3133 9.92732 79.32 8.39671 74.678C8.2587 74.264 8.05797 73.7496 7.9576 73.5238C7.86978 73.3105 7.78196 73.0596 7.78196 72.9592C7.78196 72.8714 7.66904 72.4323 7.51849 71.9806C7.09193 70.6006 6.31408 67.3637 5.97534 65.5194C5.08457 60.614 4.95911 59.2465 4.95911 54.0399C4.95911 48.9964 5.12221 47.4156 5.96279 43.6895C6.53991 41.1426 7.89487 37.843 9.09928 36.0364C9.41293 35.5722 9.65131 35.1708 9.63876 35.1582C9.61367 35.1457 9.1871 35.384 8.67272 35.6851Z" fill="#332B2B"/>
<path d="M100.748 55.6583C97.724 56.386 95.6163 57.9793 94.161 60.6265C93.2075 62.3829 92.8938 63.7756 91.8525 70.7887C90.6857 78.6049 90.0208 81.8543 88.9544 85.0284C87.7751 88.5538 86.7965 90.0092 84.7138 91.3641C82.9323 92.5058 81.4143 92.9324 79.846 92.7065C79.3065 92.6313 78.8549 92.5811 78.8423 92.5936C78.8298 92.6062 78.7796 93.1457 78.7294 93.7855L78.6416 94.9523L80.4482 94.877C84.2622 94.7264 86.4828 94.4755 87.7374 94.049C88.9544 93.6349 90.7986 92.7316 91.6518 92.1169C93.2827 90.9627 94.3993 89.0682 95.3528 85.869C95.9299 83.9118 95.9801 83.4978 96.6827 75.1798C96.7078 74.7658 96.7705 74.0883 96.7956 73.6743C96.896 72.3194 96.9838 71.4411 97.2473 69.4714C98.1757 62.3955 99.4428 58.569 101.689 56.0723C102.379 55.307 102.328 55.2945 100.748 55.6583Z" fill="#332B2B"/>
<path d="M105.001 56.1099C102.015 57.2014 100.07 61.7807 99.1668 69.8227C99.1417 70.061 99.0665 70.6758 98.9912 71.2027C98.8281 72.4448 98.5395 75.6565 98.3639 78.0654C98.1882 80.4617 97.8871 83.4978 97.724 84.4262C97.586 85.2668 96.8584 87.5878 96.3314 88.9176C95.2901 91.5523 93.6215 93.3965 91.15 94.6637C88.2518 96.1441 86.7463 96.4828 82.3678 96.6961C80.8497 96.7589 79.3442 96.8592 79.018 96.8969L78.4409 96.9721L78.2903 98.7788C78.2025 99.7699 78.1649 100.623 78.2025 100.673C78.2527 100.723 79.0682 100.636 80.0217 100.485C81.8032 100.209 83.2585 100.058 86.2445 99.8326C93.22 99.3057 96.8835 97.5367 99.8067 93.246C100.334 92.4807 101.651 89.9339 102.09 88.8549C104.624 82.5694 105.365 78.0654 105.641 67.1504C105.791 61.5423 105.979 56.7874 106.092 56.2605C106.167 55.9468 106.142 55.9217 105.816 55.9343C105.615 55.9343 105.252 56.0096 105.001 56.1099Z" fill="#332B2B"/>
<path d="M108.012 56.5742C108.012 56.662 107.962 57.1889 107.899 57.7409C107.836 58.2929 107.723 61.2789 107.661 64.3903C107.472 72.2943 107.297 75.1547 106.695 79.4454C105.841 85.593 103.106 92.4933 100.108 96.0563C98.2135 98.3271 95.2276 100.096 91.9907 100.899C90.2092 101.338 88.6911 101.551 85.8808 101.777C81.7407 102.103 78.2905 102.593 78.0522 102.894C77.9392 103.032 77.613 106.469 77.7009 106.557C77.726 106.582 78.14 106.469 78.6167 106.294C80.1473 105.729 82.0418 105.478 85.8934 105.353C91.6143 105.152 93.8224 104.726 97.0718 103.145C100.522 101.464 103.282 98.8791 105.653 95.1279C106.569 93.66 107.924 91.0003 108.526 89.4822C109.417 87.2365 110.383 83.4853 110.91 80.2609C111.048 79.3953 111.224 78.379 111.286 78.0027C111.876 74.5902 112.077 66.6987 111.625 63.8257C111.148 60.7018 110.22 58.2929 109.016 57.076C108.401 56.4361 108.037 56.2605 108.012 56.5742Z" fill="#332B2B"/>
<path d="M112.352 58.9202C112.992 60.1748 113.595 63.3991 113.82 66.7991C114.197 72.5702 112.992 81.9421 111.073 88.0394C109.981 91.5272 107.836 95.6674 105.665 98.5153C104.26 100.347 101.826 102.58 99.9445 103.785C97.8368 105.127 94.8759 106.256 92.2789 106.72C91.4509 106.871 90.6354 107.021 90.4597 107.059C90.2841 107.084 88.4524 107.172 86.3823 107.235C84.124 107.31 82.2045 107.423 81.5647 107.536C80.2724 107.774 78.5034 108.301 77.9012 108.64L77.4496 108.891L77.299 110.459C77.2237 111.325 77.1861 112.077 77.2237 112.128C77.2614 112.19 77.5876 112.103 77.9514 111.939C78.3027 111.776 78.9425 111.551 79.3566 111.438C80.2222 111.212 84.0362 110.923 87.5742 110.81C92.9564 110.647 95.3903 110.196 98.3261 108.803C102.391 106.883 107.522 102.229 110.621 97.6371C113.695 93.0954 115.69 87.9767 116.631 82.2808C117.17 78.9687 117.245 77.965 117.233 73.9879C117.22 68.3422 116.781 65.0803 115.752 62.8848C115.138 61.5674 114.397 60.5261 113.344 59.4597C112.378 58.4937 112.026 58.3055 112.352 58.9202Z" fill="#332B2B"/>
<path d="M59.9559 0.225082C58.9389 0.719852 58.3204 2.20416 58.4854 3.7297C58.5541 4.47186 58.5403 4.56806 58.2242 4.88416C57.6333 5.47514 57.0835 5.26898 56.575 4.2657C55.9978 3.12498 54.8845 2.19042 54.0874 2.19042C53.5102 2.19042 52.6306 2.9738 52.1633 3.90837C51.8472 4.58181 51.806 4.76047 51.8884 5.51637C52.1221 7.52294 53.8675 9.65319 57.0698 11.7972C57.7157 12.237 58.7327 12.828 59.3237 13.1166C60.6294 13.735 60.918 13.7213 62.6359 12.9242C65.4534 11.6048 68.4082 9.15843 69.2329 7.48171C69.9475 6.01114 69.7001 4.43062 68.5732 3.49606C68.2021 3.17996 68.0372 3.13873 67.5424 3.1937C66.7865 3.27616 65.9619 3.81216 65.4534 4.56806C64.6425 5.72252 64.2852 5.88745 63.6392 5.36519C63.3369 5.13155 63.3369 5.07657 63.4743 4.05955C63.7354 2.27288 63.2406 0.719852 62.2786 0.238826C61.6739 -0.0772772 60.5744 -0.0772772 59.9559 0.225082Z" fill="#332B2B"/>
<path d="M105.612 41.4283C104.911 41.7307 104.444 42.679 104.416 43.8472C104.403 44.9192 104.196 45.2078 103.523 45.2078C103.014 45.2078 102.877 45.0704 102.575 44.3832C102.259 43.6548 101.461 42.8027 100.953 42.679C100.238 42.5003 99.1525 43.5174 99.0151 44.4932C98.8639 45.5927 99.4411 46.7059 100.898 48.2039C102.382 49.7295 105.31 51.6673 106.134 51.6673C107.426 51.6673 110.67 49.8944 111.989 48.4651C113.198 47.1594 113.432 45.9362 112.704 44.8642C112.017 43.8747 111.054 44.0121 109.873 45.2903C109.24 45.9775 109.117 46.0599 108.773 45.9637C108.086 45.7988 108.003 45.6476 108.127 44.7268C108.443 42.3354 107.935 41.2222 106.533 41.2359C106.272 41.2359 105.859 41.3184 105.612 41.4283Z" fill="#332B2B"/>
</svg>
