<svg width="91" height="96" viewBox="0 0 91 96" fill="none" xmlns="http://www.w3.org/2000/svg">
<path fill-rule="evenodd" clip-rule="evenodd" d="M74.0264 12.922C70.8427 10.701 64.1447 6.17834 59.2659 2.94784L54.8005 0H47.6063C41.6938 0 40.3707 0.121147 40.3707 0.565338C40.3707 1.21144 42.9755 7.18787 47.8543 17.7678C51.2861 25.1979 51.2861 25.2383 51.2034 28.2669C51.0793 31.4166 50.8726 32.0627 45.0015 48.2556C40.3707 61.0565 39.4611 63.3582 38.7996 63.9236C37.7246 64.8523 32.8044 66.4272 27.9669 67.4367C19.1602 69.2135 15.8112 70.425 10.6843 73.6555C7.41793 75.7149 4.64774 76.7244 2.16698 76.7244C1.21602 76.7244 0.265066 76.8456 0.141027 76.9667C-0.0243567 77.1283 1.67083 79.1877 3.90352 81.5702C6.09485 83.9527 8.90638 87.0217 10.1468 88.3946C11.3458 89.7676 12.9583 91.1809 13.6612 91.4636C14.8189 91.9886 22.0958 93.0789 38.7169 95.2998C42.2313 95.7844 45.8284 96.0671 46.738 95.9863C47.689 95.8652 49.5909 94.9364 51.6995 93.6038C53.5187 92.3924 57.3639 90.4541 60.2168 89.2426C70.1812 85.1237 76.1764 81.7721 78.9879 78.7031C81.0966 76.4418 81.5927 75.3919 87.1744 60.37C90.4408 51.5669 90.4821 51.4458 90.3167 48.2153C90.1513 45.1463 89.986 44.6213 87.1744 39.0487C85.5206 35.7778 82.7917 29.761 81.0965 25.6421C76.9619 15.5872 76.3831 14.618 74.0264 12.922ZM48.0197 5.16878C45.0014 4.4823 44.5053 4.24001 45.3322 3.99772C46.8206 3.59391 46.862 3.59391 51.5754 4.07848C56.2475 4.52268 58.2735 5.3303 57.2812 6.25907C56.6196 6.86479 54.1389 6.58212 48.0197 5.16878ZM48.4332 8.47999C48.2678 8.72228 48.3918 9.20685 48.6812 9.57028C50.1284 11.2663 62.9456 20.1906 63.9379 20.1906C64.1447 20.1906 64.3514 19.8271 64.3514 19.4233C64.3514 18.858 62.8216 17.5254 59.7206 15.2237C57.1572 13.3661 54.6764 11.4278 54.263 10.9432C52.6091 9.12609 48.9707 7.63198 48.4332 8.47999ZM64.4341 14.0526C60.6302 11.2259 59.5139 10.0548 60.01 9.28759C60.3408 8.76263 61.0437 8.80302 62.16 9.40874C63.4004 10.0952 71.7937 17.7273 71.7937 18.2119C71.7937 18.8983 68.4033 16.96 64.4341 14.0526ZM54.1803 19.6658C54.3043 20.3119 54.9658 24.0673 55.6687 28.0651C56.106 30.5524 56.5273 32.9146 56.8032 34.4613L56.8041 34.4662C56.9711 35.4028 57.0846 36.0393 57.1158 36.2221C57.3639 37.3124 58.7697 37.4739 59.1418 36.5048C59.4725 35.6971 57.0331 21.7252 56.2476 19.8677C55.8754 18.9793 55.4206 18.5755 54.8418 18.5755C54.0976 18.5755 53.9735 18.737 54.1803 19.6658ZM60.5889 22.9366C60.3822 22.5328 60.2995 22.0482 60.4235 21.8463C60.8783 21.1194 62.4081 21.9674 65.4677 24.7133C67.2042 26.2478 69.3956 27.9438 70.3465 28.5092C71.3389 29.0341 72.5792 30.2052 73.1994 31.0128C74.3571 32.7088 74.6879 35.1317 73.6956 35.1317C73.0754 35.1317 61.2504 24.148 60.5889 22.9366ZM76.2177 25.3191C75.0187 26.4901 77.3754 36.2624 79.7735 40.0178C81.3446 42.4811 82.2956 44.0156 83.5773 46.1558C84.2802 47.2461 85.2725 48.4575 85.81 48.821C86.3276 49.1369 86.5752 49.2881 86.6643 49.2228C86.746 49.163 86.6944 48.9211 86.5956 48.4575C86.4302 47.8922 85.0244 44.6213 83.4533 41.1889C81.8821 37.7565 79.8561 33.0319 79.0292 30.6898C77.4167 26.2882 76.6725 24.8345 76.2177 25.3191ZM50.7072 38.2814C51.162 36.1412 51.5754 35.1316 52.6091 34.1221C53.8495 32.951 54.2629 34.001 53.6427 36.8277C52.9399 40.1389 52.1543 41.9965 51.4101 41.9965C50.5418 41.9965 50.2937 40.5427 50.7072 38.2814ZM62.6148 37.8372C58.1495 47.2865 53.1879 59.522 53.1879 61.0969C53.1879 62.2275 54.1389 62.7929 54.7591 62.066C55.4206 61.2584 57.5293 56.9376 58.8937 53.7071C62.8629 44.1367 65.5917 36.6258 65.5917 35.374C65.5917 32.8703 64.5581 33.7183 62.6148 37.8372ZM71.7936 55.5646C71.7936 53.9897 74.9773 43.3291 75.9696 41.5119C76.8379 39.937 77.2927 41.7138 77.0032 45.3077C76.4657 51.4861 74.6465 58.149 73.5302 58.149C72.3311 58.149 71.7936 57.301 71.7936 55.5646ZM69.0648 43.8541C66.336 47.65 60.2168 59.8451 60.2168 61.42C60.2168 62.0257 60.5062 62.8333 60.8783 63.1968C61.4985 63.8025 61.6225 63.7621 62.2014 62.9141C64.2273 60.1278 70.4706 44.3387 70.0571 43.1273C69.9744 42.885 69.5196 43.208 69.0648 43.8541ZM46.9033 57.9471C51.2033 48.7402 52.6091 45.752 53.3947 44.5405C54.8831 42.1176 54.8004 43.7733 53.1879 48.4575C50.087 57.6644 45.4149 68.204 44.836 67.356C44.0918 66.1849 45.0014 61.9852 46.9033 57.9471ZM78.7811 56.4127C72.5379 62.6718 69.2302 67.3964 68.6514 70.9903C68.3619 72.8075 68.8994 73.4132 69.8091 72.3633C72.2898 69.6173 81.8821 54.7974 81.634 54.1109C81.5513 53.8686 80.2696 54.9186 78.7811 56.4127ZM75.9283 71.5153C75.9283 70.1019 77.4994 67.7194 79.8148 65.7408C80.7244 64.8928 81.634 64.2063 81.7994 64.2063C82.3783 64.2063 81.2619 66.4272 79.1533 69.5366C76.9619 72.8479 75.9283 73.494 75.9283 71.5153ZM46.5726 70.1826C38.8409 74.0996 37.5592 74.9072 37.3938 76.1187C37.2284 77.2897 38.138 77.0474 43.513 74.5438C47.813 72.5247 52.9399 69.4154 55.2139 67.4771L56.2062 66.6291H54.9245C54.0976 66.6291 50.9966 67.9616 46.5726 70.1826ZM52.6091 77.7744C52.1956 76.4822 55.0072 73.6555 63.111 67.4367C64.7235 66.2253 65.385 66.4272 64.3927 67.8002C63.235 69.3347 57.0331 76.1187 54.9245 78.0974L54.7731 78.2385C53.9525 79.0038 53.5624 79.3675 53.2993 79.2916C53.061 79.2227 52.9269 78.7929 52.6714 77.9737L52.6091 77.7744ZM36.5255 69.375C34.0861 70.1826 31.7294 71.1921 31.2746 71.5556C30.365 72.3632 30.5717 73.4939 31.6467 73.4939C33.6313 73.4535 41.9005 69.0115 41.4043 68.2443C41.239 68.002 41.1149 67.8405 41.0736 67.8809C41.0535 67.8809 40.5636 68.0433 39.7802 68.3032L39.7793 68.3035C38.9524 68.5778 37.7989 68.9604 36.5255 69.375ZM11.3871 77.6129C11.8833 76.7245 14.7361 75.6342 17.9611 75.1092C20.814 74.665 26.313 74.6246 26.313 75.1092C26.313 75.6342 24.4525 76.5226 21.765 77.2898C18.664 78.1378 11.7179 79.107 11.3044 78.7435C11.0977 78.582 11.139 78.057 11.3871 77.6129ZM67.2456 78.905C57.7773 82.2163 49.4668 86.5371 48.2264 88.8388C48.0197 89.2426 47.9783 89.6868 48.1437 89.8079C48.8466 90.2117 68.1552 80.3991 69.9331 78.7031C70.9667 77.7339 70.5533 77.7339 67.2456 78.905ZM18.9948 83.4681C19.1602 82.9432 23.2121 82.2971 33.3418 81.2068C41.5697 80.3184 43.0582 80.278 44.9187 80.8837C46.6966 81.4895 47.1514 82.9432 45.663 83.3066C42.7687 84.0335 36.4014 84.4777 29.8274 84.5181C21.889 84.5181 18.7467 84.195 18.9948 83.4681ZM11.5525 84.0335C10.8909 84.6796 11.5525 85.8507 12.9996 86.5775C14.7775 87.4659 23.5428 89.0408 25.8996 88.8793C26.7678 88.8389 25.1553 87.7486 23.6255 87.3852C22.964 87.2236 20.938 86.416 19.0775 85.568C15.3563 83.872 12.3381 83.2663 11.5525 84.0335ZM31.688 90.0907C31.688 89.0811 32.2668 88.7177 34.3755 88.435C35.2851 88.3139 37.7659 88.1928 39.8745 88.1928C42.8101 88.2331 43.8024 88.3947 44.0918 88.8389C44.6293 89.6869 44.1332 89.8484 38.262 90.6964C32.7217 91.4636 31.688 91.3425 31.688 90.0907Z" fill="#332B2B"/>
</svg>
