<svg width="600" height="137" viewBox="0 0 600 137" fill="none" xmlns="http://www.w3.org/2000/svg">
<path d="M78.3118 78.2036C91.0145 82.1732 102.5 80.5379 115.374 79.1076M174.131 69.1641C182.999 66.7008 190.715 64.0523 200.094 63.3386C208.001 62.7371 215.935 62.398 223.848 61.9325M310.628 92.6669C323.595 92.6669 336.528 93.5708 349.497 93.5708M426.333 56.5088C431.219 56.2867 435.963 55.3914 440.797 54.7009M173.227 145.096C194.023 145.237 214.798 146 235.599 146M419.102 114.362C433.283 113.395 447.388 112.337 461.587 111.65M464.299 111.65H469.723M372.096 3.17556C389.874 2.94163 407.652 2.54097 425.429 2.27161M34.0179 28.4863C18.9558 29.2565 3.89142 29.7428 -11.1797 30.2942M-37.394 123.401C-14.298 121.554 9.05941 122.497 32.2103 122.497M157.859 23.9665C175.061 22.7378 192.136 21.614 209.385 21.2546M565.617 44.8675C582.808 45.615 600.12 46.6413 616.886 49.9945M570.743 106.391H616.886M594.669 10.6876C607.817 10.2263 620.9 8.64609 633.976 7.26965H637.394" stroke="#332B2B" stroke-width="3" stroke-linecap="round"/>
</svg>
