<svg width="135" height="133" viewBox="0 0 135 133" fill="none" xmlns="http://www.w3.org/2000/svg">
<path d="M43.2524 4.76036C43.2524 5.15245 46.2015 12.7326 49.7403 21.7505L56.2282 38.0871L59.4393 37.8911C61.1432 37.7604 62.716 37.499 62.8471 37.3683C62.9782 37.3029 62.4539 36.192 61.733 35.0158C61.0122 33.8396 59.3083 30.9643 57.9321 28.6118C56.6214 26.2594 54.3932 22.7307 53.017 20.7049C51.6408 18.6792 49.1505 14.4317 47.4466 11.2297C44.301 5.28314 43.2524 3.64948 43.2524 4.76036Z" fill="#332B2B"/>
<path d="M91.158 6.72076C90.6992 7.7663 88.7332 12.9287 86.7017 18.1564C84.6701 23.3841 81.9177 30.4416 80.5415 33.8396L78.1167 40.0475L80.4759 41.4851C81.7866 42.2693 83.0973 42.7267 83.2939 42.4653C83.556 42.2039 84.0803 40.5049 84.408 38.7406C85.9808 30.7683 88.6021 19.9208 90.5026 13.4515C91.6167 9.66135 92.4031 6.13264 92.2065 5.60987C92.0099 5.0871 91.6167 5.54452 91.158 6.72076Z" fill="#332B2B"/>
<path d="M41.9419 7.30887C41.9419 8.28907 42.9904 12.6019 44.2356 16.9148C45.4807 21.293 46.5293 25.2138 46.5293 25.7366C46.5293 26.9782 50.4613 39.2633 51.0511 39.9168C51.6409 40.5049 55.0487 39.1326 55.0487 38.3485C55.0487 37.7604 42.5972 6.19798 42.204 5.8059C42.073 5.67521 41.9419 6.32867 41.9419 7.30887Z" fill="#332B2B"/>
<path d="M88.9951 6.85145C88.4708 7.50491 86.3082 11.099 84.2767 14.7584C82.2451 18.4831 79.8859 22.6 79.0339 23.9722C77.2645 26.7168 73.6602 33.7742 72.6771 36.192C72.1529 37.695 72.3495 37.9564 74.4466 38.8059C75.7572 39.3287 76.9369 39.6554 77.1335 39.4594C77.2645 39.3287 79.6237 33.5128 82.3762 26.5208C89.1917 8.87719 90.4369 5.74056 90.1747 5.74056C90.0437 5.74056 89.5194 6.26333 88.9951 6.85145Z" fill="#332B2B"/>
<path d="M14.4177 29.7227C15.3352 30.3762 21.7575 34.8851 28.8352 39.8515L41.6143 48.7386L44.1046 46.3861C46.6604 43.9029 47.1192 42.9881 45.6774 42.9881C45.2187 42.9881 42.6629 41.9425 39.976 40.6356C37.2891 39.3287 33.226 37.6297 30.9978 36.7802C28.7041 35.9307 24.0512 33.7089 20.5779 31.8792C14.2867 28.6119 11.4032 27.6317 14.4177 29.7227Z" fill="#332B2B"/>
<path d="M13.1723 31.1604C14.0897 32.598 23.3956 40.701 33.5533 48.8039C38.5339 52.7901 38.8616 52.9861 39.7135 51.8099C40.2378 51.1564 40.631 50.2416 40.631 49.9148C40.631 49.3267 22.2159 36.1267 14.2208 30.9643L12.3203 29.7227L13.1723 31.1604Z" fill="#332B2B"/>
<path d="M60.2915 42.9227C59.5706 43.4455 60.1604 43.6415 62.7162 43.6415C70.2526 43.6415 78.7065 46.6475 81.3934 50.2415C83.0973 52.4633 86.1119 58.0178 85.6531 58.0178C85.5221 58.0178 84.2769 56.2534 82.9662 54.097C81.6556 52.0059 79.8206 49.6534 78.8376 48.8693C76.1507 46.7782 69.073 44.8831 62.2575 44.5564L56.0318 44.2297L51.5099 47.3663C46.3983 50.895 43.7769 53.8356 42.2696 57.691C41.7454 59.194 41.6143 59.7821 42.1386 59.0633C46.5949 52.2673 49.2818 50.3069 56.425 48.4772C59.374 47.693 62.192 47.497 65.8619 47.7584C75.4298 48.3465 80.7381 51.2217 83.8837 57.5603C86.1119 62.0039 86.3085 64.1603 84.8667 68.9306C82.3109 77.5564 67.3036 85.5287 58.0633 83.1762C54.1968 82.196 50.2648 78.5366 48.1022 74.0277C46.3983 70.499 46.1361 68.2118 47.1847 65.5326C47.9056 63.5722 54.6556 56.2534 56.6871 55.2732C57.408 54.8811 55.7041 56.9069 52.9517 59.7821C48.1677 64.5524 47.84 65.0752 47.84 67.6891C47.84 73.1782 53.4104 80.8891 58.3255 82.196C61.0779 82.9148 66.3206 81.8039 71.9565 79.2554C76.4784 77.1643 82.3764 71.6099 83.2284 68.5386C85.5876 60.1089 81.459 52.398 73.4638 50.1108C66.124 47.9544 52.5585 49.9148 47.9711 53.7703C45.4153 55.9267 41.2866 63.8336 41.2866 66.5782C41.2866 69.192 41.942 71.7405 42.5318 71.7405C42.7284 71.7405 42.9905 70.3683 43.056 68.7346C43.2526 64.291 44.3012 61.8079 47.0536 59.194C49.8716 56.4495 55.5075 53.4435 57.7357 53.4435C58.7842 53.4435 58.0633 53.9663 55.573 55.0118C53.5415 55.8613 50.3958 57.6257 48.6264 58.9326C45.8085 60.9584 45.2187 61.8079 44.5633 64.6178C43.5803 68.6693 44.1701 74.9425 45.874 78.3405C47.0536 80.6277 50.4614 83.7643 53.5415 85.398C55.1798 86.2475 62.8473 86.3128 66.3861 85.5287C67.8279 85.2019 68.8109 85.2019 68.8109 85.5287C68.8109 86.3782 67.5002 86.8356 63.3716 87.4237L59.9638 87.9465L64.0269 88.0118C72.6119 88.1425 80.4759 85.0712 85.5221 79.4514C92.0755 72.198 93.1895 65.3366 89.192 56.8415C86.5706 51.2871 82.8352 47.5623 76.9371 44.6217C73.6604 42.9881 72.1531 42.6613 67.1725 42.4653C63.8958 42.4 60.8157 42.596 60.2915 42.9227ZM75.9541 53.4435C78.8376 54.8811 81.7211 58.0178 82.3109 60.3049C82.9007 62.7227 81.459 66.1207 78.5755 69.2574C76.2162 71.7405 76.0852 71.8059 77.5924 69.7148C80.3449 65.9247 82.0488 61.4811 81.3279 60.1742C80.0172 57.691 75.9541 54.4891 72.6119 53.3782C69.4662 52.2673 69.3352 52.2019 71.3012 52.1366C72.4808 52.1366 74.5779 52.7247 75.9541 53.4435ZM70.2526 54.7504C71.5633 55.1425 73.3327 55.992 74.1847 56.7108L75.692 58.0178L73.3983 57.1029C72.0876 56.5802 68.942 55.9267 66.2551 55.6653C63.2405 55.4039 61.7988 55.0118 62.3886 54.6851C63.5682 53.9009 67.3036 53.9663 70.2526 54.7504ZM71.6289 58.7366C72.4153 59.194 73.2672 59.8475 73.5293 60.2396C74.1847 61.2198 74.1847 63.7683 73.4638 64.1603C73.2017 64.3564 73.0706 63.8336 73.2017 63.0495C73.3327 62.2653 73.0706 61.0237 72.4808 60.3049C71.6944 59.194 70.8424 58.998 67.3691 59.0633C60.0293 59.2594 57.0148 62.0693 57.0148 68.8C57.0148 72.5901 59.6361 75.6613 62.9128 75.6613C68.2866 75.6613 75.0366 69.1267 76.7405 62.2653L77.1992 60.3049L77.2648 62.2653C77.4614 67.9504 68.7454 76.9029 62.9128 76.9683C60.357 76.9683 57.0148 74.5504 55.9662 71.9366C55.1143 70.0415 55.1143 69.0613 55.7696 66.3821C56.1628 64.6178 57.1458 62.396 57.9323 61.4811C60.2915 58.8019 68.5488 57.1683 71.6289 58.7366ZM56.2939 61.0891C55.442 62.1346 54.5245 63.1802 54.2623 63.5069C53.9347 63.899 53.7381 63.8336 53.7381 63.3762C53.7381 62.592 56.8182 59.3247 57.539 59.3247C57.7357 59.3247 57.2114 60.1089 56.2939 61.0891ZM88.4711 69.9108C87.0293 73.7663 82.6386 81.0198 81.1968 81.9346C80.7381 82.196 81.1313 81.4118 82.0488 80.1702C84.2769 77.2297 88.1434 69.3881 88.8643 66.5128C89.1264 65.2712 89.4541 64.6831 89.5852 65.2712C89.7162 65.8594 89.2575 67.9504 88.4711 69.9108ZM56.556 75.4C57.7357 76.3801 59.8327 77.6871 61.2745 78.3405L63.8958 79.5821H61.6022C58.7842 79.5821 55.0488 76.7722 52.3619 72.4594C49.806 68.4732 49.9371 66.7742 52.4929 70.6297C53.607 72.3287 55.442 74.4851 56.556 75.4Z" fill="#332B2B"/>
<path d="M119.927 51.2217C119.01 51.3524 113.112 51.7445 106.755 52.1366C100.398 52.4633 94.5658 52.9861 93.9104 53.2475C92.6653 53.7703 92.6653 53.9009 93.6483 56.7762L94.6969 59.7821L111.867 55.8613C121.959 53.5089 128.775 51.6792 128.25 51.3524C127.464 50.895 123.335 50.8297 119.927 51.2217Z" fill="#332B2B"/>
<path d="M119.272 55.1425C114.029 56.3188 106.427 58.0831 102.43 59.0633L95.0244 60.7623V63.0495C95.0244 64.9445 95.221 65.2712 96.204 65.0099C99.8739 63.8336 109.049 60.5663 112.653 59.0633C114.947 58.1485 119.272 56.7108 122.155 55.992C127.333 54.6198 131.723 52.7901 129.757 52.8554C129.233 52.8554 124.515 53.9009 119.272 55.1425Z" fill="#332B2B"/>
<path d="M29.1627 66.7742C25.9515 67.9504 21.4952 69.6495 19.3326 70.5643C17.17 71.4792 13.0413 72.9168 10.1578 73.7009C7.27434 74.4851 4.65298 75.4653 4.25978 75.792C3.80104 76.2495 4.12871 76.3801 5.24279 76.1188C6.16027 75.9227 13.5001 74.5504 21.6263 73.0475C29.7525 71.5445 36.437 70.2376 36.568 70.1722C36.8957 69.7801 35.9127 64.5524 35.454 64.6178C35.2574 64.6178 32.4394 65.598 29.1627 66.7742Z" fill="#332B2B"/>
<path d="M20.5121 74.2891C11.7961 75.9227 4.45626 77.491 4.19412 77.7524C3.93199 78.0792 5.3082 78.2752 7.27422 78.2752C12.1893 78.2752 36.3713 76.3802 37.6165 75.9227C38.4029 75.596 38.4684 75.2693 37.8786 73.8316C37.4199 72.8514 36.9611 71.8712 36.7645 71.6752C36.5679 71.4792 29.2281 72.6554 20.5121 74.2891Z" fill="#332B2B"/>
<path d="M91.8132 77.3604C91.0268 78.6673 90.437 79.8435 90.5681 79.9089C92.1409 81.2812 120.058 98.598 120.321 98.3366C120.517 98.2059 118.682 96.3109 116.257 94.2198C113.833 92.0633 109.704 88.4039 107.083 85.9861C102.757 82.1307 95.9419 76.6416 93.9103 75.4653C93.5171 75.2039 92.5996 75.9881 91.8132 77.3604Z" fill="#332B2B"/>
<path d="M87.8814 82.9148C87.0294 84.0257 86.5051 85.0059 86.6362 85.1366C86.7673 85.2673 88.1435 85.9208 89.7818 86.5742C95.811 89.1227 102.823 92.4554 111.343 96.7683C116.127 99.1861 120.255 101.016 120.452 100.82C120.91 100.362 122.025 101.147 107.279 91.7366C92.2721 82.1307 90.2406 80.8891 89.7163 80.8891C89.5197 80.8891 88.7333 81.8039 87.8814 82.9148Z" fill="#332B2B"/>
<path d="M79.4927 89.4495C78.3131 90.2336 77.3301 91.0831 77.3301 91.3445C77.3301 92.1287 90.5679 122.907 91.2233 123.626C92.3374 124.933 91.6165 121.077 88.2087 107.55C84.2111 91.9326 83.1626 88.6 82.2451 88.2732C81.9175 88.2079 80.6068 88.7307 79.4927 89.4495Z" fill="#332B2B"/>
<path d="M47.5779 99.3821C46.2017 105.198 44.1701 112.647 43.1871 115.915C42.1386 119.182 41.2866 122.253 41.2866 122.776C41.3522 123.691 55.0488 92.2594 55.0488 91.2792C55.0488 91.0178 54.0657 90.4297 52.9517 89.9722C51.7721 89.5148 50.658 89.0574 50.4614 88.9267C50.2648 88.8613 48.9541 93.5009 47.5779 99.3821Z" fill="#332B2B"/>
<path d="M56.0973 91.8673C55.9662 92.1287 52.8206 99.3822 49.1507 108.008C45.4808 116.634 42.2696 123.952 42.073 124.345C40.8934 126.566 45.6774 121.208 47.0536 118.79C47.9711 117.156 50.8546 112.321 53.4104 108.008C58.9153 98.9247 60.9468 95.0039 60.9468 93.7624C60.9468 92.8475 56.556 91.1485 56.0973 91.8673Z" fill="#332B2B"/>
<path d="M73.5946 92.2594L71.4976 92.9782L73.6602 96.5722C74.8398 98.5326 77.7233 103.368 80.0825 107.354C82.4417 111.275 85.6529 117.026 87.1602 120.032C88.6019 122.972 89.9781 125.325 90.1747 125.194C90.4369 124.933 76.5437 92.2594 75.9539 91.7366C75.8228 91.6059 74.7743 91.8673 73.5946 92.2594Z" fill="#332B2B"/>
</svg>
