<svg width="77" height="53" viewBox="0 0 77 53" fill="none" xmlns="http://www.w3.org/2000/svg">
<path d="M22.3906 21.2886C22.5469 21.0073 22.875 20.6479 23.375 20.2104C23.875 19.7417 24.4688 19.2729 25.1562 18.8042C25.875 18.3354 26.6406 17.9136 27.4531 17.5386C28.2656 17.1323 29.0781 16.8667 29.8906 16.7417C30.7344 16.5854 31.5156 16.6167 32.2344 16.8354C32.9844 17.0229 33.625 17.4604 34.1562 18.1479C34.4375 18.4917 34.7031 19.1792 34.9531 20.2104C35.2031 21.2417 35.4375 22.4917 35.6562 23.9604C35.9062 25.3979 36.125 27.0073 36.3125 28.7886C36.5 30.5386 36.6562 32.3354 36.7812 34.1792C36.9062 35.9917 36.9844 37.7886 37.0156 39.5698C37.0781 41.3198 37.0781 42.9448 37.0156 44.4448C36.9844 45.9136 36.8906 47.1792 36.7344 48.2417C36.6094 49.2729 36.4062 49.9917 36.125 50.3979C35.5625 51.2104 34.6875 51.7573 33.5 52.0386C32.3125 52.3198 31.0625 52.3198 29.75 52.0386C28.4375 51.7886 27.1875 51.2573 26 50.4448C24.8125 49.6323 23.9375 48.5386 23.375 47.1636C23 46.2573 22.6875 45.0229 22.4375 43.4604C22.2188 41.8979 22.0469 40.2104 21.9219 38.3979C21.7969 36.5542 21.7188 34.6792 21.6875 32.7729C21.6875 30.8667 21.7031 29.1167 21.7344 27.5229C21.7969 25.8979 21.875 24.5229 21.9688 23.3979C22.0938 22.2729 22.2344 21.5698 22.3906 21.2886ZM31.5781 45.0542C31.7656 44.8667 31.8906 44.3667 31.9531 43.5542C32.0469 42.7104 32.0938 41.7261 32.0938 40.6011C32.125 39.4448 32.125 38.2261 32.0938 36.9448C32.0938 35.6636 32.0938 34.4761 32.0938 33.3823C32.0938 30.6011 32 28.4448 31.8125 26.9136C31.625 25.3823 31.4062 24.2417 31.1562 23.4917C30.875 22.6167 30.5625 22.0698 30.2188 21.8511C29.75 21.9448 29.3594 22.1011 29.0469 22.3198C28.7344 22.5073 28.4844 22.7261 28.2969 22.9761C28.0781 23.2573 27.9062 23.5542 27.7812 23.8667C27.6875 24.1479 27.5781 24.6948 27.4531 25.5073C27.3594 26.3198 27.2656 27.2886 27.1719 28.4136C27.0781 29.5073 26.9844 30.7104 26.8906 32.0229C26.8281 33.3042 26.7656 34.5698 26.7031 35.8198C26.6719 37.0698 26.6406 38.2573 26.6094 39.3823C26.6094 40.4761 26.625 41.3823 26.6562 42.1011C26.7188 43.1948 26.9688 43.9917 27.4062 44.4917C27.875 44.9917 28.375 45.3198 28.9062 45.4761C29.4375 45.6011 29.9531 45.6011 30.4531 45.4761C30.9844 45.3511 31.3594 45.2104 31.5781 45.0542ZM53.6094 24.6167C53.7031 24.6792 53.5781 25.0854 53.2344 25.8354C52.8906 26.5542 52.4062 27.4917 51.7812 28.6479C51.1875 29.7729 50.4688 31.0542 49.625 32.4917C48.8125 33.8979 47.9688 35.3354 47.0938 36.8042C47.7188 38.2417 48.3125 39.6479 48.875 41.0229C49.4688 42.3667 49.9688 43.5698 50.375 44.6323C50.7812 45.6948 51.0781 46.5542 51.2656 47.2104C51.4531 47.8354 51.5 48.1479 51.4062 48.1479C51.1875 48.1479 50.8906 48.0542 50.5156 47.8667C50.1719 47.6792 49.8125 47.4604 49.4375 47.2104C49.0625 46.9292 48.7031 46.6479 48.3594 46.3667C48.0469 46.0542 47.8281 45.8042 47.7031 45.6167C47.3594 45.0854 47.0156 44.5229 46.6719 43.9292C46.3594 43.3354 46.0625 42.7886 45.7812 42.2886C45.4375 41.7261 45.125 41.1636 44.8438 40.6011C44.2188 41.6011 43.625 42.5386 43.0625 43.4136C42.5312 44.2573 42.0469 45.0073 41.6094 45.6636C41.1719 46.3198 40.8125 46.8354 40.5312 47.2104C40.25 47.5854 40.0625 47.7729 39.9688 47.7729C39.7188 47.7729 39.4844 47.6948 39.2656 47.5386C39.0781 47.3511 38.9062 47.1323 38.75 46.8823C38.625 46.6011 38.5469 46.3198 38.5156 46.0386C38.4531 45.7573 38.4531 45.5229 38.5156 45.3354C39.0156 44.2417 39.5 43.1636 39.9688 42.1011C40.4375 41.0386 40.875 40.0854 41.2812 39.2417C41.7188 38.2417 42.1562 37.3042 42.5938 36.4292C42.0312 35.3979 41.4844 34.3979 40.9531 33.4292C40.4531 32.4292 40 31.5229 39.5938 30.7104C39.1875 29.8667 38.8438 29.1479 38.5625 28.5542C38.2812 27.9604 38.125 27.5386 38.0938 27.2886C38 26.8823 38.0781 26.5073 38.3281 26.1636C38.5781 25.7886 38.875 25.4917 39.2188 25.2729C39.5938 25.0229 39.9531 24.8511 40.2969 24.7573C40.6719 24.6323 40.9531 24.6167 41.1406 24.7104C41.2656 24.7729 41.4375 24.9917 41.6562 25.3667C41.9062 25.7417 42.1875 26.2417 42.5 26.8667C42.8438 27.4917 43.2031 28.2261 43.5781 29.0698C43.9844 29.8823 44.4062 30.7729 44.8438 31.7417C45.4375 30.6167 45.9688 29.6323 46.4375 28.7886C46.9062 27.9136 47.2812 27.3198 47.5625 27.0073C47.9062 26.6011 48.3906 26.2261 49.0156 25.8823C49.6406 25.5386 50.2656 25.2573 50.8906 25.0386C51.5469 24.8198 52.125 24.6792 52.625 24.6167C53.1562 24.5229 53.4844 24.5229 53.6094 24.6167ZM57.0312 37.9292C57.5312 37.7417 58.0938 37.5386 58.7188 37.3198C59.375 37.0698 60 36.8511 60.5938 36.6636C61.1875 36.4448 61.7188 36.2573 62.1875 36.1011C62.6562 35.9448 63 35.8198 63.2188 35.7261C63.1875 35.3823 63.1406 34.9917 63.0781 34.5542C63.0469 34.0854 63 33.6479 62.9375 33.2417C62.875 32.8042 62.7969 32.4292 62.7031 32.1167C62.6094 31.8042 62.5156 31.6167 62.4219 31.5542C62.1719 31.4604 61.75 31.3823 61.1562 31.3198C60.5938 31.2261 60 31.2417 59.375 31.3667C58.7812 31.4917 58.2344 31.7261 57.7344 32.0698C57.2344 32.4136 56.9531 32.9604 56.8906 33.7104C56.8281 34.2104 56.8125 34.8354 56.8438 35.5854C56.875 36.3354 56.9375 37.1167 57.0312 37.9292ZM67.2031 38.6792C67.1719 38.7417 66.7969 38.8667 66.0781 39.0542C65.3594 39.2417 64.5 39.4448 63.5 39.6636C62.5 39.8511 61.4375 40.0542 60.3125 40.2729C59.1875 40.4604 58.2188 40.6167 57.4062 40.7417C57.5625 41.9917 57.75 43.1167 57.9688 44.1167C58.1875 45.0854 58.375 45.6948 58.5312 45.9448C58.6875 46.1636 58.8906 46.3667 59.1406 46.5542C59.3594 46.7104 59.625 46.8667 59.9375 47.0229C60.2812 47.1479 60.6875 47.2417 61.1562 47.3042C61.5 47.3979 61.8281 47.2729 62.1406 46.9292C62.3906 46.6167 62.6094 46.0698 62.7969 45.2886C63.0156 44.5073 63.125 43.2729 63.125 41.5854C64.0938 41.4292 64.8438 41.3354 65.375 41.3042C65.9375 41.2729 66.3438 41.2729 66.5938 41.3042C66.9062 41.3354 67.0938 41.3823 67.1562 41.4448C67.1875 41.5386 67.1875 41.7729 67.1562 42.1479C67.125 42.5229 67.0469 42.9917 66.9219 43.5542C66.8281 44.0854 66.7031 44.6792 66.5469 45.3354C66.4219 45.9604 66.2656 46.5698 66.0781 47.1636C65.8906 47.7261 65.6875 48.2417 65.4688 48.7104C65.25 49.1479 65.0156 49.4604 64.7656 49.6479C64.0156 50.2104 63.0781 50.4917 61.9531 50.4917C60.8281 50.4604 59.7188 50.3042 58.625 50.0229C57.5312 49.7104 56.5469 49.3511 55.6719 48.9448C54.7969 48.5073 54.25 48.1479 54.0312 47.8667C53.875 47.6792 53.7344 47.2104 53.6094 46.4604C53.4844 45.6792 53.375 44.7417 53.2812 43.6479C53.2188 42.5542 53.1719 41.3511 53.1406 40.0386C53.1094 38.7261 53.125 37.4448 53.1875 36.1948C53.2812 34.9448 53.4062 33.7886 53.5625 32.7261C53.75 31.6636 54 30.8042 54.3125 30.1479C54.7812 29.2104 55.5469 28.4448 56.6094 27.8511C57.6719 27.2573 58.7969 26.8511 59.9844 26.6323C61.1719 26.4136 62.2969 26.3823 63.3594 26.5386C64.4531 26.6948 65.2656 27.0386 65.7969 27.5698C66.1094 27.8823 66.3906 28.5073 66.6406 29.4448C66.8906 30.3511 67.0469 31.4604 67.1094 32.7729C67.1094 32.8979 67.125 33.2573 67.1562 33.8511C67.1875 34.4448 67.2031 35.0854 67.2031 35.7729C67.2344 36.4292 67.25 37.0542 67.25 37.6479C67.25 38.2417 67.2344 38.5854 67.2031 38.6792Z" fill="#332B2B"/>
<path d="M8.02761 28.7938L8.05136 28.825C7.94072 28.9294 7.82609 29.0478 7.7095 29.1759C7.12206 29.816 6.6531 30.5555 6.32452 31.3597C5.87037 32.4903 5.70044 33.715 5.82964 34.9265C5.82617 35.0179 5.7416 35.0841 5.67078 35.0373L5.20358 34.7892C5.16588 34.7846 5.15447 34.7526 5.14305 34.7206C4.96375 33.5588 5.10034 32.3702 5.5385 31.2794C6.01599 30.1058 6.81551 29.0911 7.84485 28.3522C7.85113 28.3698 7.85798 28.389 7.86425 28.4066C7.87053 28.4242 7.87453 28.4354 7.88137 28.4546C7.9034 28.5384 7.9369 28.6187 7.98091 28.6932C7.98775 28.7377 8.00831 28.77 8.02761 28.7938Z" fill="#A17C6B"/>
<path d="M8.35918 29.0865L8.37929 29.0974C8.00991 29.963 7.80975 30.8914 7.78965 31.8324C7.76207 33.0479 8.04224 34.2506 8.60412 35.3288C8.64865 35.4031 8.56978 35.4853 8.49438 35.4761L7.96656 35.412C7.95144 35.412 7.93664 35.4076 7.92404 35.3993C7.91143 35.3909 7.90158 35.379 7.89574 35.3651C7.31648 34.3442 7.01624 33.1887 7.02523 32.0149C7.03818 31.0302 7.27239 30.061 7.71054 29.1791C7.7881 29.0156 7.87388 28.8562 7.96755 28.7015C7.98011 28.7367 8.00706 28.7667 8.02864 28.7969L8.0524 28.8281C8.11648 28.908 8.1924 28.9776 8.27751 29.0345C8.30326 29.0541 8.33058 29.0715 8.35918 29.0865Z" fill="#A17C6B"/>
<path d="M9.1241 31.8831C9.43943 33.0598 10.0416 34.14 10.8767 35.0269C10.8908 35.0411 10.9007 35.059 10.9053 35.0785C10.9099 35.098 10.909 35.1184 10.9027 35.1374C10.8964 35.1564 10.885 35.1734 10.8697 35.1863C10.8545 35.1993 10.8359 35.2077 10.8161 35.2108L10.3076 35.302C10.2756 35.3134 10.2539 35.3031 10.2265 35.2769C9.38398 34.4591 8.77465 33.4315 8.46128 32.2999C8.18074 31.2567 8.1549 30.1614 8.38591 29.1061C8.54677 29.1898 8.72562 29.2331 8.90697 29.2322C8.81503 30.1217 8.88864 31.0205 9.1241 31.8831Z" fill="#A17C6B"/>
<path d="M55.1505 17.0866C55.1619 17.1186 55.1733 17.1506 55.147 17.178L54.9423 17.6658C54.9172 17.7469 54.8098 17.7492 54.7492 17.6806C54.0825 16.6609 53.1758 15.8202 52.1086 15.2323C51.3328 14.8112 50.4873 14.5337 49.6127 14.4131C49.4237 14.3886 49.26 14.3695 49.0991 14.3583C49.1073 14.3092 49.1113 14.2596 49.111 14.2098C49.1118 14.1512 49.1066 14.0926 49.0956 14.035C49.0876 13.9785 49.0733 13.9231 49.0529 13.8699C50.3087 13.7947 51.5605 14.0728 52.6664 14.6727C53.696 15.2399 54.554 16.0737 55.1505 17.0866Z" fill="#A17C6B"/>
<path d="M53.4302 19.3423C53.4345 19.3567 53.4344 19.3722 53.4299 19.3866C53.4254 19.4011 53.4167 19.4138 53.405 19.4234L53.037 19.8071C52.9844 19.8619 52.8713 19.8482 52.8587 19.7625C52.6114 18.5721 52.067 17.4636 51.2764 16.54C50.6483 15.8029 49.8807 15.1973 49.0177 14.758C48.9978 14.7467 48.9773 14.7366 48.9564 14.7275L48.9631 14.7161C48.9716 14.7025 48.9792 14.6884 48.9859 14.6737C49.0265 14.5933 49.0567 14.508 49.0756 14.4199L49.0873 14.3616C49.0955 14.3126 49.0995 14.2629 49.0993 14.2131C49.2557 14.2673 49.4241 14.3353 49.601 14.4164C50.517 14.8223 51.328 15.4323 51.972 16.1999C52.7257 17.101 53.2286 18.1849 53.4302 19.3423Z" fill="#A17C6B"/>
<path d="M51.5684 20.7448C51.5638 20.7825 51.5535 20.8042 51.5215 20.8156L51.0701 21.0668C51.0529 21.0769 51.0331 21.0821 51.0131 21.0818C50.9931 21.0814 50.9735 21.0755 50.9566 21.0648C50.9397 21.054 50.9261 21.0388 50.9173 21.0208C50.9085 21.0028 50.9049 20.9827 50.9068 20.9627C50.992 19.7475 50.7746 18.5301 50.274 17.4195C49.8809 16.5409 49.316 15.7497 48.6126 15.0926C48.7404 15.0058 48.8496 14.8945 48.934 14.7652L48.9595 14.7254L48.9662 14.714C48.9837 14.7276 49.0018 14.7428 49.0208 14.7558C49.8976 15.4322 50.5948 16.3137 51.051 17.3227C51.5245 18.3971 51.7031 19.5784 51.5684 20.7448Z" fill="#A17C6B"/>
<path d="M15.6011 16.6255L16.901 17.3881L15.4943 17.944L15.1704 19.412L14.2009 18.2611L12.6995 18.3999L13.5055 17.1206L12.9073 15.7471L14.3708 16.1087L15.4942 15.1128L15.6011 16.6255Z" fill="#A17C6B"/>
<path d="M37.5211 8.71623L37.1149 7.27422L36.2107 8.48039L34.7163 8.43642L35.5853 9.65924L35.0615 11.0724L36.5081 10.6284L37.688 11.56L37.7045 10.0393L38.9548 9.19662L37.5211 8.71623ZM37.5211 8.71623L37.1149 7.27422L36.2107 8.48039L34.7163 8.43642L35.5853 9.65924L35.0615 11.0724L36.5081 10.6284L37.688 11.56L37.7045 10.0393L38.9548 9.19662L37.5211 8.71623ZM37.5211 8.71623L37.1149 7.27422L36.2107 8.48039L34.7163 8.43642L35.5853 9.65924L35.0615 11.0724L36.5081 10.6284L37.688 11.56L37.7045 10.0393L38.9548 9.19662L37.5211 8.71623ZM37.5211 8.71623L37.1149 7.27422L36.2107 8.48039L34.7163 8.43642L35.5853 9.65924L35.0615 11.0724L36.5081 10.6284L37.688 11.56L37.7045 10.0393L38.9548 9.19662L37.5211 8.71623ZM37.5211 8.71623L37.1149 7.27422L36.2107 8.48039L34.7163 8.43642L35.5853 9.65924L35.0615 11.0724L36.5081 10.6284L37.688 11.56L37.7045 10.0393L38.9548 9.19662L37.5211 8.71623ZM37.5211 8.71623L37.1149 7.27422L36.2107 8.48039L34.7163 8.43642L35.5853 9.65924L35.0615 11.0724L36.5081 10.6284L37.688 11.56L37.7045 10.0393L38.9548 9.19662L37.5211 8.71623ZM37.5211 8.71623L37.1149 7.27422L36.2107 8.48039L34.7163 8.43642L35.5853 9.65924L35.0615 11.0724L36.5081 10.6284L37.688 11.56L37.7045 10.0393L38.9548 9.19662L37.5211 8.71623ZM37.5211 8.71623L37.1149 7.27422L36.2107 8.48039L34.7163 8.43642L35.5853 9.65924L35.0615 11.0724L36.5081 10.6284L37.688 11.56L37.7045 10.0393L38.9548 9.19662L37.5211 8.71623ZM37.5211 8.71623L37.1149 7.27422L36.2107 8.48039L34.7163 8.43642L35.5853 9.65924L35.0615 11.0724L36.5081 10.6284L37.688 11.56L37.7045 10.0393L38.9548 9.19662L37.5211 8.71623Z" fill="#A17C6B"/>
<path d="M26.582 7.11837L24.5653 7.53122L23.0794 6.09566L22.8376 8.14754L21.0149 9.1043L22.8917 9.9676L23.2566 12.0014L24.643 10.479L26.6801 10.7802L25.6753 8.97464L26.582 7.11837ZM26.582 7.11837L24.5653 7.53122L23.0794 6.09566L22.8376 8.14754L21.0149 9.1043L22.8917 9.9676L23.2566 12.0014L24.643 10.479L26.6801 10.7802L25.6753 8.97464L26.582 7.11837ZM26.582 7.11837L24.5653 7.53122L23.0794 6.09566L22.8376 8.14754L21.0149 9.1043L22.8917 9.9676L23.2566 12.0014L24.643 10.479L26.6801 10.7802L25.6753 8.97464L26.582 7.11837ZM37.5211 8.71624L37.1149 7.27422L36.2107 8.48039L34.7163 8.43642L35.5853 9.65925L35.0615 11.0724L36.5081 10.6285L37.688 11.56L37.7045 10.0393L38.9548 9.19663L37.5211 8.71624ZM37.5211 8.71624L37.1149 7.27422L36.2107 8.48039L34.7163 8.43642L35.5853 9.65925L35.0615 11.0724L36.5081 10.6285L37.688 11.56L37.7045 10.0393L38.9548 9.19663L37.5211 8.71624ZM26.582 7.11837L24.5653 7.53122L23.0794 6.09566L22.8376 8.14754L21.0149 9.1043L22.8917 9.9676L23.2566 12.0014L24.643 10.479L26.6801 10.7802L25.6753 8.97464L26.582 7.11837ZM26.582 7.11837L24.5653 7.53122L23.0794 6.09566L22.8376 8.14754L21.0149 9.1043L22.8917 9.9676L23.2566 12.0014L24.643 10.479L26.6801 10.7802L25.6753 8.97464L26.582 7.11837ZM37.5211 8.71624L37.1149 7.27422L36.2107 8.48039L34.7163 8.43642L35.5853 9.65925L35.0615 11.0724L36.5081 10.6285L37.688 11.56L37.7045 10.0393L38.9548 9.19663L37.5211 8.71624ZM37.5211 8.71624L37.1149 7.27422L36.2107 8.48039L34.7163 8.43642L35.5853 9.65925L35.0615 11.0724L36.5081 10.6285L37.688 11.56L37.7045 10.0393L38.9548 9.19663L37.5211 8.71624ZM26.582 7.11837L24.5653 7.53122L23.0794 6.09566L22.8376 8.14754L21.0149 9.1043L22.8917 9.9676L23.2566 12.0014L24.643 10.479L26.6801 10.7802L25.6753 8.97464L26.582 7.11837ZM26.582 7.11837L24.5653 7.53122L23.0794 6.09566L22.8376 8.14754L21.0149 9.1043L22.8917 9.9676L23.2566 12.0014L24.643 10.479L26.6801 10.7802L25.6753 8.97464L26.582 7.11837ZM37.5211 8.71624L37.1149 7.27422L36.2107 8.48039L34.7163 8.43642L35.5853 9.65925L35.0615 11.0724L36.5081 10.6285L37.688 11.56L37.7045 10.0393L38.9548 9.19663L37.5211 8.71624ZM37.5211 8.71624L37.1149 7.27422L36.2107 8.48039L34.7163 8.43642L35.5853 9.65925L35.0615 11.0724L36.5081 10.6285L37.688 11.56L37.7045 10.0393L38.9548 9.19663L37.5211 8.71624ZM26.582 7.11837L24.5653 7.53122L23.0794 6.09566L22.8376 8.14754L21.0149 9.1043L22.8917 9.9676L23.2566 12.0014L24.643 10.479L26.6801 10.7802L25.6753 8.97464L26.582 7.11837ZM37.5211 8.71624L37.1149 7.27422L36.2107 8.48039L34.7163 8.43642L35.5853 9.65925L35.0615 11.0724L36.5081 10.6285L37.688 11.56L37.7045 10.0393L38.9548 9.19663L37.5211 8.71624ZM26.582 7.11837L24.5653 7.53122L23.0794 6.09566L22.8376 8.14754L21.0149 9.1043L22.8917 9.9676L23.2566 12.0014L24.643 10.479L26.6801 10.7802L25.6753 8.97464L26.582 7.11837ZM26.582 7.11837L24.5653 7.53122L23.0794 6.09566L22.8376 8.14754L21.0149 9.1043L22.8917 9.9676L23.2566 12.0014L24.643 10.479L26.6801 10.7802L25.6753 8.97464L26.582 7.11837ZM37.5211 8.71624L37.1149 7.27422L36.2107 8.48039L34.7163 8.43642L35.5853 9.65925L35.0615 11.0724L36.5081 10.6285L37.688 11.56L37.7045 10.0393L38.9548 9.19663L37.5211 8.71624ZM37.5211 8.71624L37.1149 7.27422L36.2107 8.48039L34.7163 8.43642L35.5853 9.65925L35.0615 11.0724L36.5081 10.6285L37.688 11.56L37.7045 10.0393L38.9548 9.19663L37.5211 8.71624ZM26.582 7.11837L24.5653 7.53122L23.0794 6.09566L22.8376 8.14754L21.0149 9.1043L22.8917 9.9676L23.2566 12.0014L24.643 10.479L26.6801 10.7802L25.6753 8.97464L26.582 7.11837ZM26.582 7.11837L24.5653 7.53122L23.0794 6.09566L22.8376 8.14754L21.0149 9.1043L22.8917 9.9676L23.2566 12.0014L24.643 10.479L26.6801 10.7802L25.6753 8.97464L26.582 7.11837ZM37.5211 8.71624L37.1149 7.27422L36.2107 8.48039L34.7163 8.43642L35.5853 9.65925L35.0615 11.0724L36.5081 10.6285L37.688 11.56L37.7045 10.0393L38.9548 9.19663L37.5211 8.71624ZM37.5211 8.71624L37.1149 7.27422L36.2107 8.48039L34.7163 8.43642L35.5853 9.65925L35.0615 11.0724L36.5081 10.6285L37.688 11.56L37.7045 10.0393L38.9548 9.19663L37.5211 8.71624ZM26.582 7.11837L24.5653 7.53122L23.0794 6.09566L22.8376 8.14754L21.0149 9.1043L22.8917 9.9676L23.2566 12.0014L24.643 10.479L26.6801 10.7802L25.6753 8.97464L26.582 7.11837ZM26.582 7.11837L24.5653 7.53122L23.0794 6.09566L22.8376 8.14754L21.0149 9.1043L22.8917 9.9676L23.2566 12.0014L24.643 10.479L26.6801 10.7802L25.6753 8.97464L26.582 7.11837ZM37.5211 8.71624L37.1149 7.27422L36.2107 8.48039L34.7163 8.43642L35.5853 9.65925L35.0615 11.0724L36.5081 10.6285L37.688 11.56L37.7045 10.0393L38.9548 9.19663L37.5211 8.71624ZM37.5211 8.71624L37.1149 7.27422L36.2107 8.48039L34.7163 8.43642L35.5853 9.65925L35.0615 11.0724L36.5081 10.6285L37.688 11.56L37.7045 10.0393L38.9548 9.19663L37.5211 8.71624ZM26.582 7.11837L24.5653 7.53122L23.0794 6.09566L22.8376 8.14754L21.0149 9.1043L22.8917 9.9676L23.2566 12.0014L24.643 10.479L26.6801 10.7802L25.6753 8.97464L26.582 7.11837Z" fill="#A17C6B"/>
<path d="M48.7022 13.9235C48.6982 13.9123 48.6948 13.9027 48.6908 13.8915C43.6703 3.40185 32.0272 -1.98432 21.5361 1.75814C11.1106 5.4772 5.50192 16.9111 8.14739 28.1488C8.17021 28.2128 8.17864 28.2819 8.19507 28.3482C8.19696 28.3559 8.19963 28.3634 8.20306 28.3706C8.22372 28.4525 8.26039 28.5295 8.31094 28.5972C8.35785 28.6606 8.41576 28.7151 8.48192 28.758C8.49544 28.7682 8.51003 28.7769 8.52544 28.784C8.6588 28.8598 8.81119 28.8956 8.96436 28.8871C9.16913 28.8803 9.36455 28.7997 9.51457 28.6601C11.5771 26.8029 13.7981 25.1297 16.1522 23.6595L16.1362 23.6652C17.7359 20.2633 21.4674 17.0748 26.3786 15.3228C31.2898 13.5709 36.1915 13.6779 39.5677 15.3066L39.5885 15.2992C42.3397 14.9511 45.1159 14.8417 47.8861 14.972C48.0359 14.9768 48.1845 14.9432 48.3178 14.8745C48.4511 14.8059 48.5646 14.7043 48.6477 14.5795C48.6615 14.5592 48.6738 14.538 48.6845 14.5159C48.7134 14.4613 48.7351 14.4033 48.7491 14.3432C48.7686 14.2615 48.7703 14.1767 48.7541 14.0943C48.7468 14.0348 48.7292 13.977 48.7022 13.9235ZM15.6215 20.17C15.0204 20.3845 14.3691 20.4158 13.7501 20.2602C13.1311 20.1045 12.5722 19.7687 12.144 19.2954C11.7159 18.8221 11.4377 18.2324 11.3446 17.601C11.2516 16.9695 11.3479 16.3247 11.6213 15.7479C11.8947 15.1712 12.3331 14.6885 12.8808 14.3609C13.4286 14.0333 14.0612 13.8755 14.6987 13.9074C15.3362 13.9393 15.9498 14.1596 16.4621 14.5403C16.9744 14.921 17.3623 15.4451 17.5768 16.0462C17.8643 16.8524 17.8199 17.7397 17.4532 18.5131C17.0865 19.2864 16.4277 19.8824 15.6215 20.17ZM25.5504 13.0215C24.7278 13.3149 23.8366 13.3579 22.9896 13.1448C22.1425 12.9318 21.3777 12.4724 20.7918 11.8247C20.2058 11.1769 19.8251 10.37 19.6978 9.50594C19.5705 8.64185 19.7022 7.75942 20.0764 6.97022C20.4506 6.18102 21.0504 5.5205 21.8 5.07219C22.5496 4.62389 23.4153 4.40793 24.2876 4.45162C25.1599 4.49531 25.9997 4.79669 26.7007 5.31766C27.4018 5.83862 27.9326 6.55577 28.226 7.37841C28.4209 7.92462 28.5062 8.50386 28.4772 9.08306C28.4482 9.66226 28.3054 10.2301 28.057 10.7541C27.8085 11.2781 27.4593 11.748 27.0292 12.1371C26.5991 12.5261 26.0966 12.8266 25.5504 13.0215ZM37.8134 12.4159C37.2122 12.6304 36.561 12.6617 35.942 12.5061C35.323 12.3504 34.7641 12.0146 34.3359 11.5413C33.9077 11.068 33.6295 10.4783 33.5365 9.84686C33.4434 9.21541 33.5397 8.57056 33.8131 7.99384C34.0866 7.41711 34.5249 6.93443 35.0727 6.60682C35.6205 6.27921 36.2531 6.12139 36.8905 6.15332C37.528 6.18525 38.1417 6.40549 38.654 6.78619C39.1663 7.1669 39.5542 7.69097 39.7686 8.29213C40.0562 9.09826 40.0117 9.9856 39.6451 10.759C39.2784 11.5323 38.6195 12.1283 37.8134 12.4159Z" fill="#332B2B"/>
</svg>
