<svg width="174" height="58" viewBox="0 0 174 58" fill="none" xmlns="http://www.w3.org/2000/svg">
<path d="M17.3906 21.3365C17.5469 21.0553 17.875 20.6959 18.375 20.2584C18.875 19.7897 19.4688 19.3209 20.1562 18.8522C20.875 18.3834 21.6406 17.9615 22.4531 17.5865C23.2656 17.1803 24.0781 16.9147 24.8906 16.7897C25.7344 16.6334 26.5156 16.6647 27.2344 16.8834C27.9844 17.0709 28.625 17.5084 29.1562 18.1959C29.4375 18.5397 29.7031 19.2272 29.9531 20.2584C30.2031 21.2897 30.4375 22.5397 30.6562 24.0084C30.9062 25.4459 31.125 27.0553 31.3125 28.8365C31.5 30.5865 31.6562 32.3834 31.7812 34.2272C31.9062 36.0397 31.9844 37.8365 32.0156 39.6178C32.0781 41.3678 32.0781 42.9928 32.0156 44.4928C31.9844 45.9615 31.8906 47.2272 31.7344 48.2897C31.6094 49.3209 31.4062 50.0397 31.125 50.4459C30.5625 51.2584 29.6875 51.8053 28.5 52.0865C27.3125 52.3678 26.0625 52.3678 24.75 52.0865C23.4375 51.8365 22.1875 51.3053 21 50.4928C19.8125 49.6803 18.9375 48.5865 18.375 47.2115C18 46.3053 17.6875 45.0709 17.4375 43.5084C17.2188 41.9459 17.0469 40.2584 16.9219 38.4459C16.7969 36.6022 16.7188 34.7272 16.6875 32.8209C16.6875 30.9147 16.7031 29.1647 16.7344 27.5709C16.7969 25.9459 16.875 24.5709 16.9688 23.4459C17.0938 22.3209 17.2344 21.6178 17.3906 21.3365ZM26.5781 45.1022C26.7656 44.9147 26.8906 44.4147 26.9531 43.6022C27.0469 42.7584 27.0938 41.774 27.0938 40.649C27.125 39.4928 27.125 38.274 27.0938 36.9928C27.0938 35.7115 27.0938 34.524 27.0938 33.4303C27.0938 30.649 27 28.4928 26.8125 26.9615C26.625 25.4303 26.4062 24.2897 26.1562 23.5397C25.875 22.6647 25.5625 22.1178 25.2188 21.899C24.75 21.9928 24.3594 22.149 24.0469 22.3678C23.7344 22.5553 23.4844 22.774 23.2969 23.024C23.0781 23.3053 22.9062 23.6022 22.7812 23.9147C22.6875 24.1959 22.5781 24.7428 22.4531 25.5553C22.3594 26.3678 22.2656 27.3365 22.1719 28.4615C22.0781 29.5553 21.9844 30.7584 21.8906 32.0709C21.8281 33.3522 21.7656 34.6178 21.7031 35.8678C21.6719 37.1178 21.6406 38.3053 21.6094 39.4303C21.6094 40.524 21.625 41.4303 21.6562 42.149C21.7188 43.2428 21.9688 44.0397 22.4062 44.5397C22.875 45.0397 23.375 45.3678 23.9062 45.524C24.4375 45.649 24.9531 45.649 25.4531 45.524C25.9844 45.399 26.3594 45.2584 26.5781 45.1022ZM48.6094 24.6647C48.7031 24.7272 48.5781 25.1334 48.2344 25.8834C47.8906 26.6022 47.4062 27.5397 46.7812 28.6959C46.1875 29.8209 45.4688 31.1022 44.625 32.5397C43.8125 33.9459 42.9688 35.3834 42.0938 36.8522C42.7188 38.2897 43.3125 39.6959 43.875 41.0709C44.4688 42.4147 44.9688 43.6178 45.375 44.6803C45.7812 45.7428 46.0781 46.6022 46.2656 47.2584C46.4531 47.8834 46.5 48.1959 46.4062 48.1959C46.1875 48.1959 45.8906 48.1022 45.5156 47.9147C45.1719 47.7272 44.8125 47.5084 44.4375 47.2584C44.0625 46.9772 43.7031 46.6959 43.3594 46.4147C43.0469 46.1022 42.8281 45.8522 42.7031 45.6647C42.3594 45.1334 42.0156 44.5709 41.6719 43.9772C41.3594 43.3834 41.0625 42.8365 40.7812 42.3365C40.4375 41.774 40.125 41.2115 39.8438 40.649C39.2188 41.649 38.625 42.5865 38.0625 43.4615C37.5312 44.3053 37.0469 45.0553 36.6094 45.7115C36.1719 46.3678 35.8125 46.8834 35.5312 47.2584C35.25 47.6334 35.0625 47.8209 34.9688 47.8209C34.7188 47.8209 34.4844 47.7428 34.2656 47.5865C34.0781 47.399 33.9062 47.1803 33.75 46.9303C33.625 46.649 33.5469 46.3678 33.5156 46.0865C33.4531 45.8053 33.4531 45.5709 33.5156 45.3834C34.0156 44.2897 34.5 43.2115 34.9688 42.149C35.4375 41.0865 35.875 40.1334 36.2812 39.2897C36.7188 38.2897 37.1562 37.3522 37.5938 36.4772C37.0312 35.4459 36.4844 34.4459 35.9531 33.4772C35.4531 32.4772 35 31.5709 34.5938 30.7584C34.1875 29.9147 33.8438 29.1959 33.5625 28.6022C33.2812 28.0084 33.125 27.5865 33.0938 27.3365C33 26.9303 33.0781 26.5553 33.3281 26.2115C33.5781 25.8365 33.875 25.5397 34.2188 25.3209C34.5938 25.0709 34.9531 24.899 35.2969 24.8053C35.6719 24.6803 35.9531 24.6647 36.1406 24.7584C36.2656 24.8209 36.4375 25.0397 36.6562 25.4147C36.9062 25.7897 37.1875 26.2897 37.5 26.9147C37.8438 27.5397 38.2031 28.274 38.5781 29.1178C38.9844 29.9303 39.4062 30.8209 39.8438 31.7897C40.4375 30.6647 40.9688 29.6803 41.4375 28.8365C41.9062 27.9615 42.2812 27.3678 42.5625 27.0553C42.9062 26.649 43.3906 26.274 44.0156 25.9303C44.6406 25.5865 45.2656 25.3053 45.8906 25.0865C46.5469 24.8678 47.125 24.7272 47.625 24.6647C48.1562 24.5709 48.4844 24.5709 48.6094 24.6647ZM52.0312 37.9772C52.5312 37.7897 53.0938 37.5865 53.7188 37.3678C54.375 37.1178 55 36.899 55.5938 36.7115C56.1875 36.4928 56.7188 36.3053 57.1875 36.149C57.6562 35.9928 58 35.8678 58.2188 35.774C58.1875 35.4303 58.1406 35.0397 58.0781 34.6022C58.0469 34.1334 58 33.6959 57.9375 33.2897C57.875 32.8522 57.7969 32.4772 57.7031 32.1647C57.6094 31.8522 57.5156 31.6647 57.4219 31.6022C57.1719 31.5084 56.75 31.4303 56.1562 31.3678C55.5938 31.274 55 31.2897 54.375 31.4147C53.7812 31.5397 53.2344 31.774 52.7344 32.1178C52.2344 32.4615 51.9531 33.0084 51.8906 33.7584C51.8281 34.2584 51.8125 34.8834 51.8438 35.6334C51.875 36.3834 51.9375 37.1647 52.0312 37.9772ZM62.2031 38.7272C62.1719 38.7897 61.7969 38.9147 61.0781 39.1022C60.3594 39.2897 59.5 39.4928 58.5 39.7115C57.5 39.899 56.4375 40.1022 55.3125 40.3209C54.1875 40.5084 53.2188 40.6647 52.4062 40.7897C52.5625 42.0397 52.75 43.1647 52.9688 44.1647C53.1875 45.1334 53.375 45.7428 53.5312 45.9928C53.6875 46.2115 53.8906 46.4147 54.1406 46.6022C54.3594 46.7584 54.625 46.9147 54.9375 47.0709C55.2812 47.1959 55.6875 47.2897 56.1562 47.3522C56.5 47.4459 56.8281 47.3209 57.1406 46.9772C57.3906 46.6647 57.6094 46.1178 57.7969 45.3365C58.0156 44.5553 58.125 43.3209 58.125 41.6334C59.0938 41.4772 59.8438 41.3834 60.375 41.3522C60.9375 41.3209 61.3438 41.3209 61.5938 41.3522C61.9062 41.3834 62.0938 41.4303 62.1562 41.4928C62.1875 41.5865 62.1875 41.8209 62.1562 42.1959C62.125 42.5709 62.0469 43.0397 61.9219 43.6022C61.8281 44.1334 61.7031 44.7272 61.5469 45.3834C61.4219 46.0084 61.2656 46.6178 61.0781 47.2115C60.8906 47.774 60.6875 48.2897 60.4688 48.7584C60.25 49.1959 60.0156 49.5084 59.7656 49.6959C59.0156 50.2584 58.0781 50.5397 56.9531 50.5397C55.8281 50.5084 54.7188 50.3522 53.625 50.0709C52.5312 49.7584 51.5469 49.399 50.6719 48.9928C49.7969 48.5553 49.25 48.1959 49.0312 47.9147C48.875 47.7272 48.7344 47.2584 48.6094 46.5084C48.4844 45.7272 48.375 44.7897 48.2812 43.6959C48.2188 42.6022 48.1719 41.399 48.1406 40.0865C48.1094 38.774 48.125 37.4928 48.1875 36.2428C48.2812 34.9928 48.4062 33.8365 48.5625 32.774C48.75 31.7115 49 30.8522 49.3125 30.1959C49.7812 29.2584 50.5469 28.4928 51.6094 27.899C52.6719 27.3053 53.7969 26.899 54.9844 26.6803C56.1719 26.4615 57.2969 26.4303 58.3594 26.5865C59.4531 26.7428 60.2656 27.0865 60.7969 27.6178C61.1094 27.9303 61.3906 28.5553 61.6406 29.4928C61.8906 30.399 62.0469 31.5084 62.1094 32.8209C62.1094 32.9459 62.125 33.3053 62.1562 33.899C62.1875 34.4928 62.2031 35.1334 62.2031 35.8209C62.2344 36.4772 62.25 37.1022 62.25 37.6959C62.25 38.2897 62.2344 38.6334 62.2031 38.7272ZM75.3281 33.149C76.0469 33.524 76.7656 33.9303 77.4844 34.3678C78.2344 34.8053 78.9219 35.2272 79.5469 35.6334C80.1719 36.0084 80.6875 36.3678 81.0938 36.7115C81.5312 37.024 81.8125 37.274 81.9375 37.4615C82.0938 37.7115 82.1719 38.1022 82.1719 38.6334C82.1719 39.1334 82.125 39.6959 82.0312 40.3209C81.9688 40.9147 81.8594 41.5084 81.7031 42.1022C81.5469 42.6647 81.375 43.1178 81.1875 43.4615C80.9688 43.899 80.4688 44.4615 79.6875 45.149C78.9375 45.8365 78.0938 46.524 77.1562 47.2115C76.2188 47.899 75.2969 48.5084 74.3906 49.0397C73.5156 49.5709 72.8438 49.899 72.375 50.024C72.0312 50.1178 71.5156 50.2115 70.8281 50.3053C70.1719 50.399 69.4844 50.4772 68.7656 50.5397C68.0469 50.6022 67.3906 50.649 66.7969 50.6803C66.2344 50.6803 65.8906 50.649 65.7656 50.5865C65.5156 50.4303 65.2969 50.1959 65.1094 49.8834C64.9531 49.5709 64.875 49.1647 64.875 48.6647C64.9375 47.5709 65.0625 46.8209 65.25 46.4147C65.3125 46.3209 65.3906 46.274 65.4844 46.274C65.5781 46.2428 65.7344 46.2272 65.9531 46.2272C66.1719 46.2272 66.4531 46.2272 66.7969 46.2272C67.1406 46.2272 67.5938 46.2115 68.1562 46.1803C68 44.5865 67.8594 43.0709 67.7344 41.6334C67.6094 40.1959 67.5 38.9303 67.4062 37.8365C67.2812 36.5553 67.1875 35.3522 67.125 34.2272C67.0625 33.1334 66.9688 31.9147 66.8438 30.5709C66.75 29.4147 66.6406 28.0709 66.5156 26.5397C66.3906 25.0084 66.25 23.3522 66.0938 21.5709C65.8125 21.5709 65.4844 21.5709 65.1094 21.5709C64.7344 21.5709 64.3594 21.5709 63.9844 21.5709C63.6406 21.5397 63.3438 21.5084 63.0938 21.4772C62.8125 21.4147 62.6406 21.3365 62.5781 21.2428C62.4531 21.0553 62.3594 20.7115 62.2969 20.2115C62.2344 19.6803 62.2031 19.1647 62.2031 18.6647C62.2031 18.1334 62.2969 17.6178 62.4844 17.1178C62.6719 16.5865 62.8906 16.2428 63.1406 16.0865C63.2031 16.0553 63.4531 16.0553 63.8906 16.0865C64.3281 16.0865 64.8594 16.1334 65.4844 16.2272C66.1094 16.2897 66.7812 16.3834 67.5 16.5084C68.25 16.6022 68.9531 16.7115 69.6094 16.8365C70.2656 16.9303 70.8438 17.024 71.3438 17.1178C71.8438 17.2115 72.1875 17.274 72.375 17.3053C72.6875 17.3678 73.2812 17.5397 74.1562 17.8209C75.0625 18.0709 76.0312 18.3678 77.0625 18.7115C78.0938 19.0553 79.0781 19.4459 80.0156 19.8834C80.9531 20.2897 81.6094 20.6959 81.9844 21.1022C82.1406 21.2584 82.2812 21.6959 82.4062 22.4147C82.5625 23.1334 82.6719 23.9303 82.7344 24.8053C82.8281 25.6803 82.8594 26.5084 82.8281 27.2897C82.8281 28.0397 82.75 28.5397 82.5938 28.7897C82.4688 28.9772 82.0312 29.3053 81.2812 29.774C80.5312 30.2428 79.7031 30.7272 78.7969 31.2272C77.7656 31.7897 76.6094 32.4303 75.3281 33.149ZM71.7656 32.2115C72.1719 32.024 72.7188 31.649 73.4062 31.0865C74.125 30.524 74.8281 29.899 75.5156 29.2115C76.2344 28.4928 76.8438 27.774 77.3438 27.0553C77.875 26.3053 78.1406 25.6647 78.1406 25.1334C78.1406 24.9772 77.9688 24.774 77.625 24.524C77.3125 24.274 76.875 24.024 76.3125 23.774C75.75 23.524 75.0781 23.274 74.2969 23.024C73.5469 22.7428 72.7344 22.4928 71.8594 22.274L71.7656 32.2115ZM71.7188 45.6647C72.5938 45.4772 73.4219 45.1803 74.2031 44.774C74.9844 44.3678 75.6719 43.9303 76.2656 43.4615C76.8594 42.9615 77.3281 42.4615 77.6719 41.9615C78.0156 41.4615 78.1875 41.0084 78.1875 40.6022C78.1875 40.1959 77.9219 39.7428 77.3906 39.2428C76.8906 38.7428 76.2812 38.2428 75.5625 37.7428C74.875 37.2428 74.1719 36.7897 73.4531 36.3834C72.7344 35.9772 72.1719 35.6803 71.7656 35.4928L71.7188 45.6647ZM97.2188 26.8678C97.4062 27.0865 97.5781 27.3209 97.7344 27.5709C97.8906 27.7897 98.0312 28.1022 98.1562 28.5084C98.2812 28.8834 98.375 29.3834 98.4375 30.0084C98.5312 30.6334 98.5781 31.4459 98.5781 32.4459C98.5781 34.0397 98.5312 35.649 98.4375 37.274C98.375 38.8678 98.3125 40.274 98.25 41.4928C98.2188 42.5865 98.1875 43.6022 98.1562 44.5397C98.125 45.4772 98.0938 46.3053 98.0625 47.024C98.0312 47.7115 97.9844 48.2584 97.9219 48.6647C97.8906 49.0709 97.8594 49.2897 97.8281 49.3209C97.7031 49.4147 97.5 49.3834 97.2188 49.2272C96.9688 49.0397 96.6875 48.8053 96.375 48.524C96.0938 48.2428 95.8281 47.9459 95.5781 47.6334C95.3281 47.3209 95.1719 47.0709 95.1094 46.8834C95.1094 46.7272 95.0625 46.274 94.9688 45.524C94.2188 45.9615 93.3906 46.274 92.4844 46.4615C91.5781 46.6178 90.6719 46.6803 89.7656 46.649C88.8906 46.5865 88.0781 46.4147 87.3281 46.1334C86.5781 45.8522 86.0156 45.4772 85.6406 45.0084C85.4844 44.8209 85.3438 44.5397 85.2188 44.1647C85.125 43.7897 85.0312 43.3678 84.9375 42.899C84.875 42.399 84.8125 41.8834 84.75 41.3522C84.6875 40.7897 84.6406 40.274 84.6094 39.8053C84.5469 38.5865 84.7031 37.5397 85.0781 36.6647C85.4531 35.7584 86.1406 35.0865 87.1406 34.649C87.5781 34.4615 88.1562 34.3678 88.875 34.3678C89.625 34.3365 90.3594 34.3678 91.0781 34.4615C91.8281 34.524 92.5 34.6178 93.0938 34.7428C93.6875 34.8365 94.0625 34.9147 94.2188 34.9772C94.0938 33.3834 94 32.0084 93.9375 30.8522C93.875 29.6647 93.75 28.899 93.5625 28.5553C93.4062 28.3365 93.2188 28.1178 93 27.899C92.8125 27.7428 92.5625 27.5709 92.25 27.3834C91.9375 27.1959 91.5625 27.0553 91.125 26.9615C90.7812 26.899 90.4688 27.0397 90.1875 27.3834C89.9375 27.6959 89.7031 28.2584 89.4844 29.0709C89.2969 29.8522 89.1875 31.0553 89.1562 32.6803C88.0625 32.7115 87.2188 32.7115 86.625 32.6803C86.0625 32.6178 85.6406 32.5553 85.3594 32.4928C85.0156 32.4303 84.8125 32.3522 84.75 32.2584C84.6875 32.1334 84.7188 31.6803 84.8438 30.899C84.9688 30.0865 85.1406 29.2115 85.3594 28.274C85.6094 27.3365 85.8906 26.4459 86.2031 25.6022C86.5469 24.7584 86.9062 24.2272 87.2812 24.0084C88.0312 23.5709 88.9219 23.4147 89.9531 23.5397C91.0156 23.6647 92.0469 23.9303 93.0469 24.3365C94.0469 24.7428 94.9375 25.1959 95.7188 25.6959C96.5 26.1959 97 26.5865 97.2188 26.8678ZM94.3125 40.5553C94.3125 40.399 94.3281 40.1959 94.3594 39.9459C94.3906 39.6647 94.4062 39.3834 94.4062 39.1022C94.4062 38.8209 94.3906 38.5553 94.3594 38.3053C94.3594 38.0553 94.3281 37.8678 94.2656 37.7428C94.1719 37.5553 93.8906 37.399 93.4219 37.274C92.9844 37.149 92.4844 37.0709 91.9219 37.0397C91.3594 36.9772 90.8281 36.9615 90.3281 36.9928C89.8281 36.9928 89.4844 37.0553 89.2969 37.1803C89.0469 37.3365 88.8594 37.5553 88.7344 37.8365C88.6406 38.1178 88.5781 38.5553 88.5469 39.149C88.5469 39.4303 88.5625 39.7272 88.5938 40.0397C88.625 40.3522 88.6562 40.6647 88.6875 40.9772C88.75 41.2584 88.8125 41.5084 88.875 41.7272C88.9688 41.9459 89.0625 42.0865 89.1562 42.149C89.375 42.3053 89.75 42.4459 90.2812 42.5709C90.8438 42.6647 91.4062 42.6959 91.9688 42.6647C92.5312 42.6022 93.0469 42.4147 93.5156 42.1022C93.9844 41.7897 94.25 41.274 94.3125 40.5553ZM114.891 31.8834C114.891 32.3834 114.828 33.1022 114.703 34.0397C114.609 34.9772 114.469 36.0084 114.281 37.1334C114.094 38.2272 113.891 39.3678 113.672 40.5553C113.484 41.7115 113.281 42.774 113.062 43.7428C112.875 44.7115 112.703 45.524 112.547 46.1803C112.422 46.8365 112.344 47.1959 112.312 47.2584C112.25 47.3522 112.078 47.4147 111.797 47.4459C111.547 47.4459 111.25 47.4147 110.906 47.3522C110.594 47.2897 110.297 47.1959 110.016 47.0709C109.766 46.9459 109.609 46.7897 109.547 46.6022C109.516 46.4772 109.5 46.0397 109.5 45.2897C109.531 44.5397 109.562 43.649 109.594 42.6178C109.656 41.5553 109.719 40.4303 109.781 39.2428C109.844 38.024 109.906 36.899 109.969 35.8678C110.062 34.8053 110.125 33.899 110.156 33.149C110.219 32.399 110.25 31.9459 110.25 31.7897C110.25 31.2272 110.188 30.6959 110.062 30.1959C109.969 29.6647 109.844 29.2115 109.688 28.8365C109.531 28.4615 109.344 28.1803 109.125 27.9928C108.938 27.774 108.766 27.6959 108.609 27.7584C108.203 27.8209 107.859 27.9303 107.578 28.0865C107.297 28.2115 107.062 28.3522 106.875 28.5084C106.656 28.6959 106.484 28.9147 106.359 29.1647C106.328 29.2272 106.266 29.4147 106.172 29.7272C106.109 30.0397 106.078 30.399 106.078 30.8053C106.078 30.9303 106.078 31.3834 106.078 32.1647C106.078 32.9147 106.062 33.8209 106.031 34.8834C106.031 35.9459 106.016 37.1022 105.984 38.3522C105.984 39.5709 105.969 40.7115 105.938 41.774C105.938 42.8053 105.922 43.6959 105.891 44.4459C105.859 45.1959 105.828 45.6178 105.797 45.7115C105.734 45.899 105.578 46.1647 105.328 46.5084C105.078 46.8209 104.797 47.1178 104.484 47.399C104.172 47.6803 103.875 47.899 103.594 48.0553C103.312 48.1803 103.125 48.149 103.031 47.9615C102.938 47.8678 102.844 47.4147 102.75 46.6022C102.656 45.7584 102.547 44.7428 102.422 43.5553C102.328 42.3365 102.219 41.024 102.094 39.6178C101.969 38.1803 101.859 36.8053 101.766 35.4928C101.672 34.1803 101.594 32.9928 101.531 31.9303C101.469 30.8678 101.422 30.1022 101.391 29.6334C101.359 28.9772 101.328 28.2428 101.297 27.4303C101.266 26.5865 101.234 25.8053 101.203 25.0865C101.203 24.3365 101.203 23.6959 101.203 23.1647C101.234 22.6022 101.297 22.2584 101.391 22.1334C101.453 22.0084 101.656 21.9772 102 22.0397C102.375 22.1022 102.766 22.2272 103.172 22.4147C103.609 22.5709 104.016 22.774 104.391 23.024C104.766 23.2428 105.016 23.4615 105.141 23.6803C105.203 23.8678 105.281 24.0865 105.375 24.3365C105.469 24.5553 105.547 24.9303 105.609 25.4615C106.141 25.149 106.719 24.8678 107.344 24.6178C107.969 24.3365 108.578 24.1334 109.172 24.0084C109.797 23.8522 110.391 23.8053 110.953 23.8678C111.516 23.899 112.016 24.0553 112.453 24.3365C112.734 24.5553 113.016 24.9303 113.297 25.4615C113.609 25.9928 113.875 26.6178 114.094 27.3365C114.344 28.0553 114.531 28.8209 114.656 29.6334C114.812 30.4147 114.891 31.1647 114.891 31.8834ZM124.828 35.2584C125.078 35.6959 125.453 36.3522 125.953 37.2272C126.484 38.1022 127.047 39.0709 127.641 40.1334C128.234 41.1959 128.844 42.2897 129.469 43.4147C130.094 44.5397 130.641 45.5709 131.109 46.5084C131.578 47.4459 131.938 48.2272 132.188 48.8522C132.469 49.4772 132.562 49.8209 132.469 49.8834C132.312 49.9772 132.078 50.024 131.766 50.024C131.453 49.9928 131.125 49.9459 130.781 49.8834C130.438 49.7897 130.109 49.6803 129.797 49.5553C129.516 49.399 129.312 49.2584 129.188 49.1334C128.125 47.6959 127.172 46.3678 126.328 45.149C125.516 43.9303 124.797 42.8678 124.172 41.9615C123.453 40.9303 122.812 39.9772 122.25 39.1022C122.156 40.5709 122.062 41.9615 121.969 43.274C121.875 44.5865 121.781 45.7584 121.688 46.7897C121.594 47.7897 121.484 48.6022 121.359 49.2272C121.266 49.8209 121.172 50.1334 121.078 50.1647C120.828 50.1959 120.562 50.1022 120.281 49.8834C120 49.6334 119.734 49.3365 119.484 48.9928C119.234 48.6178 119 48.2428 118.781 47.8678C118.594 47.4615 118.484 47.1178 118.453 46.8365C118.266 43.9928 118.109 41.4459 117.984 39.1959C117.891 36.9147 117.797 34.899 117.703 33.149C117.641 31.399 117.594 29.8834 117.562 28.6022C117.562 27.2897 117.562 26.1803 117.562 25.274C117.562 23.1178 117.625 21.6334 117.75 20.8209C117.875 20.1959 118.156 19.6022 118.594 19.0397C119.062 18.4459 119.562 17.9303 120.094 17.4928C120.625 17.0553 121.125 16.7272 121.594 16.5084C122.062 16.2897 122.375 16.2272 122.531 16.3209C122.656 16.4147 122.734 16.9615 122.766 17.9615C122.797 18.9615 122.797 20.2428 122.766 21.8053C122.766 23.3365 122.734 25.0553 122.672 26.9615C122.609 28.8678 122.547 30.774 122.484 32.6803C123.047 31.8365 123.594 30.9928 124.125 30.149C124.656 29.274 125.156 28.4928 125.625 27.8053C126.094 27.0865 126.5 26.4928 126.844 26.024C127.219 25.5553 127.5 25.274 127.688 25.1803C127.906 25.0553 128.25 24.9615 128.719 24.899C129.219 24.8053 129.719 24.7428 130.219 24.7115C130.719 24.6803 131.172 24.6959 131.578 24.7584C132.016 24.8209 132.281 24.9303 132.375 25.0865C132.469 25.1803 132.297 25.5709 131.859 26.2584C131.422 26.9147 130.844 27.7272 130.125 28.6959C129.406 29.6647 128.578 30.7272 127.641 31.8834C126.703 33.0397 125.766 34.1647 124.828 35.2584ZM137.719 31.3678C137.781 31.524 137.812 32.024 137.812 32.8678C137.844 33.6803 137.844 34.6803 137.812 35.8678C137.812 37.024 137.781 38.274 137.719 39.6178C137.656 40.9303 137.578 42.1803 137.484 43.3678C137.422 44.524 137.344 45.524 137.25 46.3678C137.156 47.1803 137.062 47.6647 136.969 47.8209C136.688 48.2584 136.266 48.5397 135.703 48.6647C135.141 48.7584 134.734 48.774 134.484 48.7115C134.359 48.7115 134.219 48.3522 134.062 47.6334C133.938 46.9147 133.812 46.0084 133.688 44.9147C133.562 43.8209 133.453 42.6334 133.359 41.3522C133.266 40.0709 133.188 38.8522 133.125 37.6959C133.062 36.5084 133.031 35.4772 133.031 34.6022C133.031 33.7272 133.062 33.1647 133.125 32.9147C133.219 32.5084 133.484 32.149 133.922 31.8365C134.391 31.524 134.875 31.2897 135.375 31.1334C135.906 30.9772 136.391 30.9147 136.828 30.9459C137.297 30.9459 137.594 31.0865 137.719 31.3678ZM137.953 23.774C138.078 24.024 138.125 24.3678 138.094 24.8053C138.094 25.2428 138.047 25.6959 137.953 26.1647C137.859 26.6334 137.734 27.0865 137.578 27.524C137.422 27.9615 137.266 28.3053 137.109 28.5553C136.797 28.9928 136.328 29.274 135.703 29.399C135.109 29.4928 134.672 29.5084 134.391 29.4459C134.172 29.4147 133.953 29.274 133.734 29.024C133.516 28.7428 133.328 28.4147 133.172 28.0397C133.016 27.6334 132.906 27.1959 132.844 26.7272C132.781 26.2584 132.797 25.8209 132.891 25.4147C132.984 25.0084 133.281 24.649 133.781 24.3365C134.281 23.9928 134.812 23.7428 135.375 23.5865C135.938 23.399 136.469 23.3209 136.969 23.3522C137.469 23.3522 137.797 23.4928 137.953 23.774ZM154.688 31.8834C154.688 32.3834 154.625 33.1022 154.5 34.0397C154.406 34.9772 154.266 36.0084 154.078 37.1334C153.891 38.2272 153.688 39.3678 153.469 40.5553C153.281 41.7115 153.078 42.774 152.859 43.7428C152.672 44.7115 152.5 45.524 152.344 46.1803C152.219 46.8365 152.141 47.1959 152.109 47.2584C152.047 47.3522 151.875 47.4147 151.594 47.4459C151.344 47.4459 151.047 47.4147 150.703 47.3522C150.391 47.2897 150.094 47.1959 149.812 47.0709C149.562 46.9459 149.406 46.7897 149.344 46.6022C149.312 46.4772 149.297 46.0397 149.297 45.2897C149.328 44.5397 149.359 43.649 149.391 42.6178C149.453 41.5553 149.516 40.4303 149.578 39.2428C149.641 38.024 149.703 36.899 149.766 35.8678C149.859 34.8053 149.922 33.899 149.953 33.149C150.016 32.399 150.047 31.9459 150.047 31.7897C150.047 31.2272 149.984 30.6959 149.859 30.1959C149.766 29.6647 149.641 29.2115 149.484 28.8365C149.328 28.4615 149.141 28.1803 148.922 27.9928C148.734 27.774 148.562 27.6959 148.406 27.7584C148 27.8209 147.656 27.9303 147.375 28.0865C147.094 28.2115 146.859 28.3522 146.672 28.5084C146.453 28.6959 146.281 28.9147 146.156 29.1647C146.125 29.2272 146.062 29.4147 145.969 29.7272C145.906 30.0397 145.875 30.399 145.875 30.8053C145.875 30.9303 145.875 31.3834 145.875 32.1647C145.875 32.9147 145.859 33.8209 145.828 34.8834C145.828 35.9459 145.812 37.1022 145.781 38.3522C145.781 39.5709 145.766 40.7115 145.734 41.774C145.734 42.8053 145.719 43.6959 145.688 44.4459C145.656 45.1959 145.625 45.6178 145.594 45.7115C145.531 45.899 145.375 46.1647 145.125 46.5084C144.875 46.8209 144.594 47.1178 144.281 47.399C143.969 47.6803 143.672 47.899 143.391 48.0553C143.109 48.1803 142.922 48.149 142.828 47.9615C142.734 47.8678 142.641 47.4147 142.547 46.6022C142.453 45.7584 142.344 44.7428 142.219 43.5553C142.125 42.3365 142.016 41.024 141.891 39.6178C141.766 38.1803 141.656 36.8053 141.562 35.4928C141.469 34.1803 141.391 32.9928 141.328 31.9303C141.266 30.8678 141.219 30.1022 141.188 29.6334C141.156 28.9772 141.125 28.2428 141.094 27.4303C141.062 26.5865 141.031 25.8053 141 25.0865C141 24.3365 141 23.6959 141 23.1647C141.031 22.6022 141.094 22.2584 141.188 22.1334C141.25 22.0084 141.453 21.9772 141.797 22.0397C142.172 22.1022 142.562 22.2272 142.969 22.4147C143.406 22.5709 143.812 22.774 144.188 23.024C144.562 23.2428 144.812 23.4615 144.938 23.6803C145 23.8678 145.078 24.0865 145.172 24.3365C145.266 24.5553 145.344 24.9303 145.406 25.4615C145.938 25.149 146.516 24.8678 147.141 24.6178C147.766 24.3365 148.375 24.1334 148.969 24.0084C149.594 23.8522 150.188 23.8053 150.75 23.8678C151.312 23.899 151.812 24.0553 152.25 24.3365C152.531 24.5553 152.812 24.9303 153.094 25.4615C153.406 25.9928 153.672 26.6178 153.891 27.3365C154.141 28.0553 154.328 28.8209 154.453 29.6334C154.609 30.4147 154.688 31.1647 154.688 31.8834ZM169.312 53.024C169.25 53.2115 169.062 53.5084 168.75 53.9147C168.438 54.3209 168.062 54.7428 167.625 55.1803C167.188 55.6178 166.75 56.0084 166.312 56.3522C165.875 56.6959 165.516 56.9147 165.234 57.0084C164.609 57.1959 163.938 57.149 163.219 56.8678C162.531 56.6178 161.859 56.274 161.203 55.8365C160.578 55.399 160.031 54.9459 159.562 54.4772C159.094 54.0397 158.797 53.7115 158.672 53.4928C158.578 53.274 158.484 52.9772 158.391 52.6022C158.328 52.2272 158.281 51.8522 158.25 51.4772C158.219 51.1022 158.219 50.7897 158.25 50.5397C158.312 50.2584 158.422 50.1178 158.578 50.1178C158.734 50.1178 159.094 50.274 159.656 50.5865C160.25 50.8678 160.859 51.1647 161.484 51.4772C162.141 51.7897 162.75 52.0397 163.312 52.2272C163.875 52.4147 164.219 52.3834 164.344 52.1334C164.469 51.9147 164.578 51.3053 164.672 50.3053C164.797 49.274 164.938 48.024 165.094 46.5553C165.031 46.5553 164.969 46.5709 164.906 46.6022C164.875 46.6022 164.828 46.6022 164.766 46.6022C164.484 46.6959 164.094 46.7428 163.594 46.7428C163.094 46.7428 162.562 46.7115 162 46.649C161.469 46.5865 160.938 46.4772 160.406 46.3209C159.906 46.1334 159.5 45.899 159.188 45.6178C159.062 45.4928 158.922 45.3053 158.766 45.0553C158.641 44.774 158.547 44.4147 158.484 43.9772C158.391 43.7897 158.234 43.2584 158.016 42.3834C157.797 41.4772 157.578 40.4615 157.359 39.3365C157.141 38.1803 156.938 37.024 156.75 35.8678C156.594 34.7115 156.547 33.7897 156.609 33.1022C156.641 32.4147 156.766 31.7115 156.984 30.9928C157.203 30.2428 157.453 29.5397 157.734 28.8834C158.047 28.2272 158.375 27.6647 158.719 27.1959C159.062 26.6959 159.406 26.3522 159.75 26.1647C160.5 25.7897 161.438 25.7115 162.562 25.9303C163.688 26.149 164.891 26.5709 166.172 27.1959C166.203 26.8834 166.344 26.5397 166.594 26.1647C166.844 25.7897 167.125 25.4615 167.438 25.1803C167.781 24.8678 168.125 24.649 168.469 24.524C168.812 24.3678 169.078 24.3522 169.266 24.4772C169.359 24.5397 169.438 24.9772 169.5 25.7897C169.562 26.5709 169.609 27.6022 169.641 28.8834C169.703 30.1334 169.734 31.5709 169.734 33.1959C169.766 34.7897 169.766 36.4459 169.734 38.1647C169.734 39.8522 169.719 41.524 169.688 43.1803C169.688 44.8365 169.656 46.3522 169.594 47.7272C169.562 49.1022 169.516 50.2584 169.453 51.1959C169.422 52.1334 169.375 52.7428 169.312 53.024ZM166.031 30.7584C165.844 30.6334 165.625 30.5084 165.375 30.3834C165.156 30.2584 164.906 30.1334 164.625 30.0084C164.344 29.8834 164.031 29.774 163.688 29.6803C163.531 29.6178 163.312 29.6803 163.031 29.8678C162.781 30.0553 162.516 30.3209 162.234 30.6647C161.984 31.0084 161.766 31.4303 161.578 31.9303C161.391 32.399 161.297 32.899 161.297 33.4303C161.297 33.4928 161.312 33.7897 161.344 34.3209C161.375 34.8522 161.422 35.4928 161.484 36.2428C161.547 36.9928 161.609 37.8053 161.672 38.6803C161.734 39.5553 161.797 40.3678 161.859 41.1178C161.953 41.8678 162.031 42.5084 162.094 43.0397C162.156 43.5397 162.203 43.8053 162.234 43.8365C162.359 43.9615 162.531 44.024 162.75 44.024C163 44.024 163.234 43.9928 163.453 43.9303C163.703 43.8678 163.922 43.7897 164.109 43.6959C164.297 43.6022 164.438 43.524 164.531 43.4615C164.938 43.1803 165.188 42.6334 165.281 41.8209C165.344 41.7584 165.375 41.5865 165.375 41.3053C165.469 39.2428 165.562 37.3834 165.656 35.7272C165.75 34.0397 165.875 32.3834 166.031 30.7584Z" fill="#332B2B"/>
<path d="M3.02771 28.8418L3.05147 28.873C2.94083 28.9773 2.82619 29.0958 2.70961 29.2239C2.12216 29.864 1.65321 30.6034 1.32463 31.4077C0.870477 32.5383 0.70055 33.763 0.829742 34.9745C0.826281 35.0659 0.741709 35.1321 0.67089 35.0852L0.203689 34.8371C0.165988 34.8325 0.154574 34.8006 0.143161 34.7686C-0.0361469 33.6068 0.100442 32.4182 0.538604 31.3274C1.0161 30.1538 1.81562 29.139 2.84496 28.4002C2.85124 28.4178 2.85808 28.437 2.86436 28.4546C2.87064 28.4722 2.87463 28.4834 2.88148 28.5026C2.90351 28.5863 2.937 28.6666 2.98102 28.7412C2.98786 28.7856 3.00841 28.818 3.02771 28.8418Z" fill="#A17C6B"/>
<path d="M3.35947 29.1345L3.37958 29.1454C3.0102 30.011 2.81004 30.9394 2.78994 31.8803C2.76236 33.0958 3.04253 34.2986 3.60441 35.3768C3.64894 35.4511 3.57007 35.5333 3.49467 35.5241L2.96685 35.4599C2.95173 35.46 2.93693 35.4556 2.92433 35.4472C2.91172 35.4389 2.90187 35.427 2.89603 35.4131C2.31677 34.3921 2.01653 33.2367 2.02552 32.0629C2.03847 31.0782 2.27268 30.109 2.71083 29.227C2.78839 29.0636 2.87417 28.9042 2.96784 28.7494C2.9804 28.7846 3.00735 28.8147 3.02893 28.8449L3.05269 28.8761C3.11677 28.9559 3.19269 29.0255 3.2778 29.0825C3.30355 29.102 3.33087 29.1194 3.35947 29.1345Z" fill="#A17C6B"/>
<path d="M4.1244 31.9311C4.43974 33.1078 5.04191 34.1879 5.87701 35.0749C5.89111 35.0891 5.90101 35.1069 5.9056 35.1265C5.91019 35.146 5.9093 35.1663 5.90302 35.1854C5.89675 35.2044 5.88534 35.2213 5.87005 35.2343C5.85476 35.2472 5.83619 35.2557 5.81639 35.2588L5.30794 35.35C5.27594 35.3614 5.25424 35.3511 5.22682 35.3248C4.38428 34.507 3.77495 33.4795 3.46158 32.3479C3.18105 31.3047 3.1552 30.2093 3.38622 29.1541C3.54707 29.2378 3.72592 29.2811 3.90727 29.2802C3.81533 30.1696 3.88895 31.0685 4.1244 31.9311Z" fill="#A17C6B"/>
<path d="M50.1506 17.1346C50.1621 17.1666 50.1735 17.1986 50.1472 17.226L49.9425 17.7138C49.9173 17.7949 49.8099 17.7971 49.7494 17.7286C49.0826 16.7088 48.176 15.8682 47.1088 15.2803C46.3329 14.8592 45.4874 14.5816 44.6129 14.4611C44.4238 14.4366 44.2601 14.4174 44.0992 14.4063C44.1074 14.3572 44.1114 14.3075 44.1112 14.2578C44.112 14.1991 44.1068 14.1406 44.0957 14.083C44.0878 14.0265 44.0735 13.9711 44.053 13.9179C45.3089 13.8427 46.5607 14.1208 47.6665 14.7207C48.6962 15.2879 49.5542 16.1217 50.1506 17.1346Z" fill="#A17C6B"/>
<path d="M48.4303 19.3902C48.4346 19.4047 48.4345 19.4202 48.43 19.4346C48.4255 19.449 48.4168 19.4618 48.4051 19.4713L48.0371 19.8551C47.9845 19.9099 47.8714 19.8962 47.8588 19.8105C47.6115 18.6201 47.0672 17.5116 46.2765 16.588C45.6484 15.8509 44.8808 15.2453 44.0178 14.8059C43.9979 14.7947 43.9774 14.7846 43.9565 14.7755L43.9632 14.7641C43.9718 14.7505 43.9794 14.7363 43.986 14.7217C44.0266 14.6413 44.0568 14.556 44.0758 14.4679L44.0874 14.4096C44.0956 14.3605 44.0996 14.3108 44.0994 14.2611C44.2558 14.3153 44.4243 14.3832 44.6011 14.4644C45.5171 14.8703 46.3281 15.4803 46.9721 16.2479C47.7258 17.149 48.2288 18.2328 48.4303 19.3902Z" fill="#A17C6B"/>
<path d="M46.5686 20.7927C46.5641 20.8304 46.5538 20.8521 46.5218 20.8635L46.0704 21.1147C46.0531 21.1249 46.0334 21.1301 46.0133 21.1297C45.9933 21.1294 45.9738 21.1235 45.9569 21.1127C45.94 21.102 45.9264 21.0867 45.9176 21.0687C45.9088 21.0507 45.9051 21.0306 45.907 21.0107C45.9923 19.7955 45.7748 18.5781 45.2742 17.4675C44.8812 16.5888 44.3163 15.7977 43.6129 15.1406C43.7406 15.0538 43.8498 14.9425 43.9343 14.8131L43.9597 14.7734L43.9665 14.762C43.984 14.7756 44.002 14.7908 44.0211 14.8038C44.8979 15.4802 45.595 16.3617 46.0512 17.3707C46.5248 18.4451 46.7034 19.6263 46.5686 20.7927Z" fill="#A17C6B"/>
<path d="M10.6011 16.6735L11.901 17.436L10.4944 17.9919L10.1705 19.46L9.20093 18.3091L7.6996 18.4479L8.50556 17.1686L7.90738 15.795L9.37082 16.1566L10.4943 15.1608L10.6011 16.6735Z" fill="#A17C6B"/>
<path d="M32.521 8.76421L32.1148 7.32219L31.2106 8.52836L29.7162 8.48439L30.5852 9.70722L30.0614 11.1203L31.508 10.6764L32.6879 11.608L32.7045 10.0873L33.9547 9.2446L32.521 8.76421ZM32.521 8.76421L32.1148 7.32219L31.2106 8.52836L29.7162 8.48439L30.5852 9.70722L30.0614 11.1203L31.508 10.6764L32.6879 11.608L32.7045 10.0873L33.9547 9.2446L32.521 8.76421ZM32.521 8.76421L32.1148 7.32219L31.2106 8.52836L29.7162 8.48439L30.5852 9.70722L30.0614 11.1203L31.508 10.6764L32.6879 11.608L32.7045 10.0873L33.9547 9.2446L32.521 8.76421ZM32.521 8.76421L32.1148 7.32219L31.2106 8.52836L29.7162 8.48439L30.5852 9.70722L30.0614 11.1203L31.508 10.6764L32.6879 11.608L32.7045 10.0873L33.9547 9.2446L32.521 8.76421ZM32.521 8.76421L32.1148 7.32219L31.2106 8.52836L29.7162 8.48439L30.5852 9.70722L30.0614 11.1203L31.508 10.6764L32.6879 11.608L32.7045 10.0873L33.9547 9.2446L32.521 8.76421ZM32.521 8.76421L32.1148 7.32219L31.2106 8.52836L29.7162 8.48439L30.5852 9.70722L30.0614 11.1203L31.508 10.6764L32.6879 11.608L32.7045 10.0873L33.9547 9.2446L32.521 8.76421ZM32.521 8.76421L32.1148 7.32219L31.2106 8.52836L29.7162 8.48439L30.5852 9.70722L30.0614 11.1203L31.508 10.6764L32.6879 11.608L32.7045 10.0873L33.9547 9.2446L32.521 8.76421ZM32.521 8.76421L32.1148 7.32219L31.2106 8.52836L29.7162 8.48439L30.5852 9.70722L30.0614 11.1203L31.508 10.6764L32.6879 11.608L32.7045 10.0873L33.9547 9.2446L32.521 8.76421ZM32.521 8.76421L32.1148 7.32219L31.2106 8.52836L29.7162 8.48439L30.5852 9.70722L30.0614 11.1203L31.508 10.6764L32.6879 11.608L32.7045 10.0873L33.9547 9.2446L32.521 8.76421Z" fill="#A17C6B"/>
<path d="M21.5821 7.16634L19.5653 7.57919L18.0795 6.14363L17.8376 8.19551L16.0149 9.15228L17.8918 10.0156L18.2566 12.0494L19.6431 10.5269L21.6801 10.8282L20.6753 9.02261L21.5821 7.16634ZM21.5821 7.16634L19.5653 7.57919L18.0795 6.14363L17.8376 8.19551L16.0149 9.15228L17.8918 10.0156L18.2566 12.0494L19.6431 10.5269L21.6801 10.8282L20.6753 9.02261L21.5821 7.16634ZM21.5821 7.16634L19.5653 7.57919L18.0795 6.14363L17.8376 8.19551L16.0149 9.15228L17.8918 10.0156L18.2566 12.0494L19.6431 10.5269L21.6801 10.8282L20.6753 9.02261L21.5821 7.16634ZM32.5211 8.76421L32.1149 7.32219L31.2107 8.52837L29.7163 8.4844L30.5853 9.70722L30.0616 11.1203L31.5082 10.6764L32.688 11.608L32.7046 10.0873L33.9548 9.2446L32.5211 8.76421ZM32.5211 8.76421L32.1149 7.32219L31.2107 8.52837L29.7163 8.4844L30.5853 9.70722L30.0616 11.1203L31.5082 10.6764L32.688 11.608L32.7046 10.0873L33.9548 9.2446L32.5211 8.76421ZM21.5821 7.16634L19.5653 7.57919L18.0795 6.14363L17.8376 8.19551L16.0149 9.15228L17.8918 10.0156L18.2566 12.0494L19.6431 10.5269L21.6801 10.8282L20.6753 9.02261L21.5821 7.16634ZM21.5821 7.16634L19.5653 7.57919L18.0795 6.14363L17.8376 8.19551L16.0149 9.15228L17.8918 10.0156L18.2566 12.0494L19.6431 10.5269L21.6801 10.8282L20.6753 9.02261L21.5821 7.16634ZM32.5211 8.76421L32.1149 7.32219L31.2107 8.52837L29.7163 8.4844L30.5853 9.70722L30.0616 11.1203L31.5082 10.6764L32.688 11.608L32.7046 10.0873L33.9548 9.2446L32.5211 8.76421ZM32.5211 8.76421L32.1149 7.32219L31.2107 8.52837L29.7163 8.4844L30.5853 9.70722L30.0616 11.1203L31.5082 10.6764L32.688 11.608L32.7046 10.0873L33.9548 9.2446L32.5211 8.76421ZM21.5821 7.16634L19.5653 7.57919L18.0795 6.14363L17.8376 8.19551L16.0149 9.15228L17.8918 10.0156L18.2566 12.0494L19.6431 10.5269L21.6801 10.8282L20.6753 9.02261L21.5821 7.16634ZM21.5821 7.16634L19.5653 7.57919L18.0795 6.14363L17.8376 8.19551L16.0149 9.15228L17.8918 10.0156L18.2566 12.0494L19.6431 10.5269L21.6801 10.8282L20.6753 9.02261L21.5821 7.16634ZM32.5211 8.76421L32.1149 7.32219L31.2107 8.52837L29.7163 8.4844L30.5853 9.70722L30.0616 11.1203L31.5082 10.6764L32.688 11.608L32.7046 10.0873L33.9548 9.2446L32.5211 8.76421ZM32.5211 8.76421L32.1149 7.32219L31.2107 8.52837L29.7163 8.4844L30.5853 9.70722L30.0616 11.1203L31.5082 10.6764L32.688 11.608L32.7046 10.0873L33.9548 9.2446L32.5211 8.76421ZM21.5821 7.16634L19.5653 7.57919L18.0795 6.14363L17.8376 8.19551L16.0149 9.15228L17.8918 10.0156L18.2566 12.0494L19.6431 10.5269L21.6801 10.8282L20.6753 9.02261L21.5821 7.16634ZM32.5211 8.76421L32.1149 7.32219L31.2107 8.52837L29.7163 8.4844L30.5853 9.70722L30.0616 11.1203L31.5082 10.6764L32.688 11.608L32.7046 10.0873L33.9548 9.2446L32.5211 8.76421ZM21.5821 7.16634L19.5653 7.57919L18.0795 6.14363L17.8376 8.19551L16.0149 9.15228L17.8918 10.0156L18.2566 12.0494L19.6431 10.5269L21.6801 10.8282L20.6753 9.02261L21.5821 7.16634ZM21.5821 7.16634L19.5653 7.57919L18.0795 6.14363L17.8376 8.19551L16.0149 9.15228L17.8918 10.0156L18.2566 12.0494L19.6431 10.5269L21.6801 10.8282L20.6753 9.02261L21.5821 7.16634ZM32.5211 8.76421L32.1149 7.32219L31.2107 8.52837L29.7163 8.4844L30.5853 9.70722L30.0616 11.1203L31.5082 10.6764L32.688 11.608L32.7046 10.0873L33.9548 9.2446L32.5211 8.76421ZM32.5211 8.76421L32.1149 7.32219L31.2107 8.52837L29.7163 8.4844L30.5853 9.70722L30.0616 11.1203L31.5082 10.6764L32.688 11.608L32.7046 10.0873L33.9548 9.2446L32.5211 8.76421ZM21.5821 7.16634L19.5653 7.57919L18.0795 6.14363L17.8376 8.19551L16.0149 9.15228L17.8918 10.0156L18.2566 12.0494L19.6431 10.5269L21.6801 10.8282L20.6753 9.02261L21.5821 7.16634ZM21.5821 7.16634L19.5653 7.57919L18.0795 6.14363L17.8376 8.19551L16.0149 9.15228L17.8918 10.0156L18.2566 12.0494L19.6431 10.5269L21.6801 10.8282L20.6753 9.02261L21.5821 7.16634ZM32.5211 8.76421L32.1149 7.32219L31.2107 8.52837L29.7163 8.4844L30.5853 9.70722L30.0616 11.1203L31.5082 10.6764L32.688 11.608L32.7046 10.0873L33.9548 9.2446L32.5211 8.76421ZM32.5211 8.76421L32.1149 7.32219L31.2107 8.52837L29.7163 8.4844L30.5853 9.70722L30.0616 11.1203L31.5082 10.6764L32.688 11.608L32.7046 10.0873L33.9548 9.2446L32.5211 8.76421ZM21.5821 7.16634L19.5653 7.57919L18.0795 6.14363L17.8376 8.19551L16.0149 9.15228L17.8918 10.0156L18.2566 12.0494L19.6431 10.5269L21.6801 10.8282L20.6753 9.02261L21.5821 7.16634ZM21.5821 7.16634L19.5653 7.57919L18.0795 6.14363L17.8376 8.19551L16.0149 9.15228L17.8918 10.0156L18.2566 12.0494L19.6431 10.5269L21.6801 10.8282L20.6753 9.02261L21.5821 7.16634ZM32.5211 8.76421L32.1149 7.32219L31.2107 8.52837L29.7163 8.4844L30.5853 9.70722L30.0616 11.1203L31.5082 10.6764L32.688 11.608L32.7046 10.0873L33.9548 9.2446L32.5211 8.76421ZM32.5211 8.76421L32.1149 7.32219L31.2107 8.52837L29.7163 8.4844L30.5853 9.70722L30.0616 11.1203L31.5082 10.6764L32.688 11.608L32.7046 10.0873L33.9548 9.2446L32.5211 8.76421ZM21.5821 7.16634L19.5653 7.57919L18.0795 6.14363L17.8376 8.19551L16.0149 9.15228L17.8918 10.0156L18.2566 12.0494L19.6431 10.5269L21.6801 10.8282L20.6753 9.02261L21.5821 7.16634Z" fill="#A17C6B"/>
<path d="M43.7021 13.9715C43.6981 13.9603 43.6947 13.9507 43.6907 13.9395C38.6702 3.44982 27.0272 -1.93635 16.536 1.80611C6.11048 5.52517 0.501824 16.9591 3.1473 28.1968C3.17012 28.2608 3.17855 28.3299 3.19498 28.3962C3.19687 28.4039 3.19954 28.4114 3.20297 28.4186C3.22363 28.5005 3.2603 28.5775 3.31085 28.6452C3.35776 28.7086 3.41567 28.763 3.48183 28.806C3.49535 28.8162 3.50994 28.8249 3.52535 28.8319C3.65871 28.9078 3.8111 28.9436 3.96427 28.935C4.16904 28.9283 4.36445 28.8477 4.51448 28.7081C6.577 26.8509 8.798 25.1776 11.1521 23.7075L11.1361 23.7132C12.7358 20.3113 16.4673 17.1228 21.3785 15.3708C26.2897 13.6189 31.1915 13.7259 34.5676 15.3546L34.5884 15.3471C37.3396 14.9991 40.1159 14.8897 42.886 15.02C43.0358 15.0248 43.1844 14.9912 43.3177 14.9225C43.451 14.8538 43.5645 14.7523 43.6476 14.6275C43.6614 14.6072 43.6737 14.5859 43.6844 14.5639C43.7133 14.5093 43.735 14.4513 43.749 14.3911C43.7685 14.3095 43.7702 14.2247 43.754 14.1423C43.7467 14.0828 43.7292 14.025 43.7021 13.9715ZM10.6214 20.218C10.0203 20.4324 9.36903 20.4638 8.75005 20.3081C8.13106 20.1525 7.57214 19.8167 7.14396 19.3434C6.71578 18.8701 6.43757 18.2804 6.34452 17.6489C6.25148 17.0175 6.34776 16.3726 6.62121 15.7959C6.89465 15.2192 7.33298 14.7365 7.88075 14.4089C8.42852 14.0813 9.06114 13.9235 9.6986 13.9554C10.3361 13.9873 10.9498 14.2076 11.462 14.5883C11.9743 14.969 12.3622 15.493 12.5767 16.0942C12.8643 16.9003 12.8198 17.7877 12.4531 18.561C12.0865 19.3344 11.4276 19.9304 10.6214 20.218ZM20.5503 13.0695C19.7277 13.3629 18.8365 13.4058 17.9895 13.1928C17.1424 12.9798 16.3776 12.5204 15.7917 11.8726C15.2057 11.2249 14.825 10.418 14.6977 9.55391C14.5704 8.68983 14.7021 7.80739 15.0763 7.01819C15.4505 6.22899 16.0503 5.56848 16.7999 5.12017C17.5495 4.67186 18.4152 4.4559 19.2875 4.49959C20.1598 4.54328 20.9996 4.84467 21.7006 5.36563C22.4017 5.88659 22.9325 6.60374 23.2259 7.42638C23.4208 7.97259 23.5061 8.55183 23.4771 9.13103C23.4481 9.71023 23.3053 10.278 23.0569 10.8021C22.8084 11.3261 22.4592 11.796 22.0291 12.185C21.599 12.5741 21.0966 12.8746 20.5503 13.0695ZM32.8133 12.4639C32.2121 12.6783 31.5609 12.7097 30.9419 12.554C30.3229 12.3983 29.764 12.0626 29.3358 11.5893C28.9076 11.116 28.6294 10.5263 28.5364 9.89483C28.4433 9.26339 28.5396 8.61853 28.813 8.04181C29.0865 7.46509 29.5248 6.9824 30.0726 6.65479C30.6204 6.32718 31.253 6.16937 31.8904 6.20129C32.5279 6.23322 33.1416 6.45346 33.6539 6.83417C34.1662 7.21487 34.5541 7.73894 34.7685 8.3401C35.0561 9.14623 35.0116 10.0336 34.645 10.8069C34.2783 11.5803 33.6194 12.1763 32.8133 12.4639Z" fill="#332B2B"/>
</svg>
